<?xml version="1.0" encoding="UTF-8" standalone="no"?>
<!DOCTYPE svg PUBLIC "-//W3C//DTD SVG 1.1//EN"
 "http://www.w3.org/Graphics/SVG/1.1/DTD/svg11.dtd">
<!-- Generated by graphviz version 2.40.1 (20161225.0304)
 -->
<!-- Title: %3 Pages: 1 -->
<svg width="778pt" height="1004pt"
 viewBox="0.00 0.00 778.39 1004.00" xmlns="http://www.w3.org/2000/svg" xmlns:xlink="http://www.w3.org/1999/xlink">
<g id="graph0" class="graph" transform="scale(.7753 .7753) rotate(0) translate(4 1291)">
<title>%3</title>
<polygon fill="#ffffff" stroke="transparent" points="-4,4 -4,-1291 1000,-1291 1000,4 -4,4"/>
<!-- 140575821930336 -->
<g id="node1" class="node">
<title>140575821930336</title>
<polygon fill="#caff70" stroke="#000000" points="753.5,-21 663.5,-21 663.5,0 753.5,0 753.5,-21"/>
<text text-anchor="middle" x="708.5" y="-7.4" font-family="Times,serif" font-size="12.00" fill="#000000">SubBackward0</text>
</g>
<!-- 140575828012784 -->
<g id="node2" class="node">
<title>140575828012784</title>
<polygon fill="#d3d3d3" stroke="#000000" points="811.5,-78 719.5,-78 719.5,-57 811.5,-57 811.5,-78"/>
<text text-anchor="middle" x="765.5" y="-64.4" font-family="Times,serif" font-size="12.00" fill="#000000">AddBackward0</text>
</g>
<!-- 140575828012784&#45;&gt;140575821930336 -->
<g id="edge1" class="edge">
<title>140575828012784&#45;&gt;140575821930336</title>
<path fill="none" stroke="#000000" d="M754.7787,-56.7787C746.8173,-48.8173 735.7739,-37.7739 726.4717,-28.4717"/>
<polygon fill="#000000" stroke="#000000" points="728.7192,-25.7694 719.1732,-21.1732 723.7694,-30.7192 728.7192,-25.7694"/>
</g>
<!-- 140575827818872 -->
<g id="node3" class="node">
<title>140575827818872</title>
<polygon fill="#d3d3d3" stroke="#000000" points="847.5,-135 743.5,-135 743.5,-114 847.5,-114 847.5,-135"/>
<text text-anchor="middle" x="795.5" y="-121.4" font-family="Times,serif" font-size="12.00" fill="#000000">AddmmBackward</text>
</g>
<!-- 140575827818872&#45;&gt;140575828012784 -->
<g id="edge2" class="edge">
<title>140575827818872&#45;&gt;140575828012784</title>
<path fill="none" stroke="#000000" d="M789.8572,-113.7787C785.9184,-106.2949 780.5463,-96.088 775.8494,-87.1638"/>
<polygon fill="#000000" stroke="#000000" points="778.8722,-85.3923 771.1175,-78.1732 772.6778,-88.6525 778.8722,-85.3923"/>
</g>
<!-- 140575827819096 -->
<g id="node4" class="node">
<title>140575827819096</title>
<polygon fill="#add8e6" stroke="#000000" points="792.5,-206 738.5,-206 738.5,-171 792.5,-171 792.5,-206"/>
<text text-anchor="middle" x="765.5" y="-178.4" font-family="Times,serif" font-size="12.00" fill="#000000"> (1)</text>
</g>
<!-- 140575827819096&#45;&gt;140575827818872 -->
<g id="edge3" class="edge">
<title>140575827819096&#45;&gt;140575827818872</title>
<path fill="none" stroke="#000000" d="M773.8567,-170.6724C777.6947,-162.4845 782.26,-152.7453 786.2061,-144.327"/>
<polygon fill="#000000" stroke="#000000" points="789.3981,-145.7636 790.4734,-135.2234 783.0599,-142.7925 789.3981,-145.7636"/>
</g>
<!-- 140575822133008 -->
<g id="node5" class="node">
<title>140575822133008</title>
<polygon fill="#d3d3d3" stroke="#000000" points="904.5,-199 810.5,-199 810.5,-178 904.5,-178 904.5,-199"/>
<text text-anchor="middle" x="857.5" y="-185.4" font-family="Times,serif" font-size="12.00" fill="#000000">ReluBackward0</text>
</g>
<!-- 140575822133008&#45;&gt;140575827818872 -->
<g id="edge4" class="edge">
<title>140575822133008&#45;&gt;140575827818872</title>
<path fill="none" stroke="#000000" d="M847.262,-177.9317C837.9842,-168.3546 824.1146,-154.0376 813.0669,-142.6336"/>
<polygon fill="#000000" stroke="#000000" points="815.4323,-140.045 805.9605,-135.2979 810.4046,-144.9156 815.4323,-140.045"/>
</g>
<!-- 140575822133568 -->
<g id="node6" class="node">
<title>140575822133568</title>
<polygon fill="#d3d3d3" stroke="#000000" points="873.5,-270 769.5,-270 769.5,-249 873.5,-249 873.5,-270"/>
<text text-anchor="middle" x="821.5" y="-256.4" font-family="Times,serif" font-size="12.00" fill="#000000">AddmmBackward</text>
</g>
<!-- 140575822133568&#45;&gt;140575822133008 -->
<g id="edge5" class="edge">
<title>140575822133568&#45;&gt;140575822133008</title>
<path fill="none" stroke="#000000" d="M826.9676,-248.7166C832.3596,-238.0825 840.73,-221.5741 847.344,-208.5299"/>
<polygon fill="#000000" stroke="#000000" points="850.5802,-209.8867 851.9809,-199.3849 844.3369,-206.721 850.5802,-209.8867"/>
</g>
<!-- 140575822134576 -->
<g id="node7" class="node">
<title>140575822134576</title>
<polygon fill="#add8e6" stroke="#000000" points="833.5,-348 779.5,-348 779.5,-313 833.5,-313 833.5,-348"/>
<text text-anchor="middle" x="806.5" y="-320.4" font-family="Times,serif" font-size="12.00" fill="#000000"> (512)</text>
</g>
<!-- 140575822134576&#45;&gt;140575822133568 -->
<g id="edge6" class="edge">
<title>140575822134576&#45;&gt;140575822133568</title>
<path fill="none" stroke="#000000" d="M810.2079,-312.9494C812.3198,-302.9527 814.9762,-290.3791 817.1819,-279.9389"/>
<polygon fill="#000000" stroke="#000000" points="820.6329,-280.5364 819.2756,-270.0288 813.7841,-279.0894 820.6329,-280.5364"/>
</g>
<!-- 140575822133232 -->
<g id="node8" class="node">
<title>140575822133232</title>
<polygon fill="#d3d3d3" stroke="#000000" points="732.5,-341 640.5,-341 640.5,-320 732.5,-320 732.5,-341"/>
<text text-anchor="middle" x="686.5" y="-327.4" font-family="Times,serif" font-size="12.00" fill="#000000">ViewBackward</text>
</g>
<!-- 140575822133232&#45;&gt;140575822133568 -->
<g id="edge7" class="edge">
<title>140575822133232&#45;&gt;140575822133568</title>
<path fill="none" stroke="#000000" d="M706.7109,-319.8706C729.3775,-307.9496 766.3413,-288.5094 792.1813,-274.9195"/>
<polygon fill="#000000" stroke="#000000" points="793.9295,-277.9546 801.151,-270.2021 790.6712,-271.7592 793.9295,-277.9546"/>
</g>
<!-- 140575822132336 -->
<g id="node40" class="node">
<title>140575822132336</title>
<polygon fill="#d3d3d3" stroke="#000000" points="579.5,-270 475.5,-270 475.5,-249 579.5,-249 579.5,-270"/>
<text text-anchor="middle" x="527.5" y="-256.4" font-family="Times,serif" font-size="12.00" fill="#000000">AddmmBackward</text>
</g>
<!-- 140575822133232&#45;&gt;140575822132336 -->
<g id="edge41" class="edge">
<title>140575822133232&#45;&gt;140575822132336</title>
<path fill="none" stroke="#000000" d="M662.6961,-319.8706C635.5704,-307.7579 591.0598,-287.882 560.5725,-274.2682"/>
<polygon fill="#000000" stroke="#000000" points="561.7647,-270.9675 551.2066,-270.086 558.9105,-277.3592 561.7647,-270.9675"/>
</g>
<!-- 140575822134520 -->
<g id="node9" class="node">
<title>140575822134520</title>
<polygon fill="#d3d3d3" stroke="#000000" points="733.5,-412 639.5,-412 639.5,-391 733.5,-391 733.5,-412"/>
<text text-anchor="middle" x="686.5" y="-398.4" font-family="Times,serif" font-size="12.00" fill="#000000">ReluBackward0</text>
</g>
<!-- 140575822134520&#45;&gt;140575822133232 -->
<g id="edge8" class="edge">
<title>140575822134520&#45;&gt;140575822133232</title>
<path fill="none" stroke="#000000" d="M686.5,-390.7166C686.5,-380.3953 686.5,-364.5401 686.5,-351.6896"/>
<polygon fill="#000000" stroke="#000000" points="690.0001,-351.3848 686.5,-341.3849 683.0001,-351.3849 690.0001,-351.3848"/>
</g>
<!-- 140575822133064 -->
<g id="node10" class="node">
<title>140575822133064</title>
<polygon fill="#d3d3d3" stroke="#000000" points="765,-476 608,-476 608,-455 765,-455 765,-476"/>
<text text-anchor="middle" x="686.5" y="-462.4" font-family="Times,serif" font-size="12.00" fill="#000000">CudnnConvolutionBackward</text>
</g>
<!-- 140575822133064&#45;&gt;140575822134520 -->
<g id="edge9" class="edge">
<title>140575822133064&#45;&gt;140575822134520</title>
<path fill="none" stroke="#000000" d="M686.5,-454.9317C686.5,-446.0913 686.5,-433.2122 686.5,-422.3135"/>
<polygon fill="#000000" stroke="#000000" points="690.0001,-422.2979 686.5,-412.2979 683.0001,-422.2979 690.0001,-422.2979"/>
</g>
<!-- 140575822132448 -->
<g id="node11" class="node">
<title>140575822132448</title>
<polygon fill="#d3d3d3" stroke="#000000" points="628,-540 447,-540 447,-519 628,-519 628,-540"/>
<text text-anchor="middle" x="537.5" y="-526.4" font-family="Times,serif" font-size="12.00" fill="#000000">MaxPool2DWithIndicesBackward</text>
</g>
<!-- 140575822132448&#45;&gt;140575822133064 -->
<g id="edge10" class="edge">
<title>140575822132448&#45;&gt;140575822133064</title>
<path fill="none" stroke="#000000" d="M562.1043,-518.9317C586.7999,-508.3242 625.033,-491.9019 652.5949,-480.0633"/>
<polygon fill="#000000" stroke="#000000" points="654.0522,-483.2466 661.8591,-476.084 651.2895,-476.8148 654.0522,-483.2466"/>
</g>
<!-- 140575822134352 -->
<g id="node12" class="node">
<title>140575822134352</title>
<polygon fill="#d3d3d3" stroke="#000000" points="584.5,-604 490.5,-604 490.5,-583 584.5,-583 584.5,-604"/>
<text text-anchor="middle" x="537.5" y="-590.4" font-family="Times,serif" font-size="12.00" fill="#000000">ReluBackward0</text>
</g>
<!-- 140575822134352&#45;&gt;140575822132448 -->
<g id="edge11" class="edge">
<title>140575822134352&#45;&gt;140575822132448</title>
<path fill="none" stroke="#000000" d="M537.5,-582.9317C537.5,-574.0913 537.5,-561.2122 537.5,-550.3135"/>
<polygon fill="#000000" stroke="#000000" points="541.0001,-550.2979 537.5,-540.2979 534.0001,-550.2979 541.0001,-550.2979"/>
</g>
<!-- 140575822134296 -->
<g id="node13" class="node">
<title>140575822134296</title>
<polygon fill="#d3d3d3" stroke="#000000" points="616,-661 459,-661 459,-640 616,-640 616,-661"/>
<text text-anchor="middle" x="537.5" y="-647.4" font-family="Times,serif" font-size="12.00" fill="#000000">CudnnConvolutionBackward</text>
</g>
<!-- 140575822134296&#45;&gt;140575822134352 -->
<g id="edge12" class="edge">
<title>140575822134296&#45;&gt;140575822134352</title>
<path fill="none" stroke="#000000" d="M537.5,-639.7787C537.5,-632.6134 537.5,-622.9517 537.5,-614.3097"/>
<polygon fill="#000000" stroke="#000000" points="541.0001,-614.1732 537.5,-604.1732 534.0001,-614.1732 541.0001,-614.1732"/>
</g>
<!-- 140575822134240 -->
<g id="node14" class="node">
<title>140575822134240</title>
<polygon fill="#d3d3d3" stroke="#000000" points="479,-725 298,-725 298,-704 479,-704 479,-725"/>
<text text-anchor="middle" x="388.5" y="-711.4" font-family="Times,serif" font-size="12.00" fill="#000000">MaxPool2DWithIndicesBackward</text>
</g>
<!-- 140575822134240&#45;&gt;140575822134296 -->
<g id="edge13" class="edge">
<title>140575822134240&#45;&gt;140575822134296</title>
<path fill="none" stroke="#000000" d="M413.1043,-703.9317C437.7999,-693.3242 476.033,-676.9019 503.5949,-665.0633"/>
<polygon fill="#000000" stroke="#000000" points="505.0522,-668.2466 512.8591,-661.084 502.2895,-661.8148 505.0522,-668.2466"/>
</g>
<!-- 140575822134128 -->
<g id="node15" class="node">
<title>140575822134128</title>
<polygon fill="#d3d3d3" stroke="#000000" points="435.5,-789 341.5,-789 341.5,-768 435.5,-768 435.5,-789"/>
<text text-anchor="middle" x="388.5" y="-775.4" font-family="Times,serif" font-size="12.00" fill="#000000">ReluBackward0</text>
</g>
<!-- 140575822134128&#45;&gt;140575822134240 -->
<g id="edge14" class="edge">
<title>140575822134128&#45;&gt;140575822134240</title>
<path fill="none" stroke="#000000" d="M388.5,-767.9317C388.5,-759.0913 388.5,-746.2122 388.5,-735.3135"/>
<polygon fill="#000000" stroke="#000000" points="392.0001,-735.2979 388.5,-725.2979 385.0001,-735.2979 392.0001,-735.2979"/>
</g>
<!-- 140575822134072 -->
<g id="node16" class="node">
<title>140575822134072</title>
<polygon fill="#d3d3d3" stroke="#000000" points="467,-846 310,-846 310,-825 467,-825 467,-846"/>
<text text-anchor="middle" x="388.5" y="-832.4" font-family="Times,serif" font-size="12.00" fill="#000000">CudnnConvolutionBackward</text>
</g>
<!-- 140575822134072&#45;&gt;140575822134128 -->
<g id="edge15" class="edge">
<title>140575822134072&#45;&gt;140575822134128</title>
<path fill="none" stroke="#000000" d="M388.5,-824.7787C388.5,-817.6134 388.5,-807.9517 388.5,-799.3097"/>
<polygon fill="#000000" stroke="#000000" points="392.0001,-799.1732 388.5,-789.1732 385.0001,-799.1732 392.0001,-799.1732"/>
</g>
<!-- 140575822133960 -->
<g id="node17" class="node">
<title>140575822133960</title>
<polygon fill="#d3d3d3" stroke="#000000" points="330,-910 149,-910 149,-889 330,-889 330,-910"/>
<text text-anchor="middle" x="239.5" y="-896.4" font-family="Times,serif" font-size="12.00" fill="#000000">MaxPool2DWithIndicesBackward</text>
</g>
<!-- 140575822133960&#45;&gt;140575822134072 -->
<g id="edge16" class="edge">
<title>140575822133960&#45;&gt;140575822134072</title>
<path fill="none" stroke="#000000" d="M264.1043,-888.9317C288.7999,-878.3242 327.033,-861.9019 354.5949,-850.0633"/>
<polygon fill="#000000" stroke="#000000" points="356.0522,-853.2466 363.8591,-846.084 353.2895,-846.8148 356.0522,-853.2466"/>
</g>
<!-- 140575822133792 -->
<g id="node18" class="node">
<title>140575822133792</title>
<polygon fill="#d3d3d3" stroke="#000000" points="286.5,-974 192.5,-974 192.5,-953 286.5,-953 286.5,-974"/>
<text text-anchor="middle" x="239.5" y="-960.4" font-family="Times,serif" font-size="12.00" fill="#000000">ReluBackward0</text>
</g>
<!-- 140575822133792&#45;&gt;140575822133960 -->
<g id="edge17" class="edge">
<title>140575822133792&#45;&gt;140575822133960</title>
<path fill="none" stroke="#000000" d="M239.5,-952.9317C239.5,-944.0913 239.5,-931.2122 239.5,-920.3135"/>
<polygon fill="#000000" stroke="#000000" points="243.0001,-920.2979 239.5,-910.2979 236.0001,-920.2979 243.0001,-920.2979"/>
</g>
<!-- 140575822133680 -->
<g id="node19" class="node">
<title>140575822133680</title>
<polygon fill="#d3d3d3" stroke="#000000" points="318,-1031 161,-1031 161,-1010 318,-1010 318,-1031"/>
<text text-anchor="middle" x="239.5" y="-1017.4" font-family="Times,serif" font-size="12.00" fill="#000000">CudnnConvolutionBackward</text>
</g>
<!-- 140575822133680&#45;&gt;140575822133792 -->
<g id="edge18" class="edge">
<title>140575822133680&#45;&gt;140575822133792</title>
<path fill="none" stroke="#000000" d="M239.5,-1009.7787C239.5,-1002.6134 239.5,-992.9517 239.5,-984.3097"/>
<polygon fill="#000000" stroke="#000000" points="243.0001,-984.1732 239.5,-974.1732 236.0001,-984.1732 243.0001,-984.1732"/>
</g>
<!-- 140575822131496 -->
<g id="node20" class="node">
<title>140575822131496</title>
<polygon fill="#d3d3d3" stroke="#000000" points="181,-1095 0,-1095 0,-1074 181,-1074 181,-1095"/>
<text text-anchor="middle" x="90.5" y="-1081.4" font-family="Times,serif" font-size="12.00" fill="#000000">MaxPool2DWithIndicesBackward</text>
</g>
<!-- 140575822131496&#45;&gt;140575822133680 -->
<g id="edge19" class="edge">
<title>140575822131496&#45;&gt;140575822133680</title>
<path fill="none" stroke="#000000" d="M115.1043,-1073.9317C139.7999,-1063.3242 178.033,-1046.9019 205.5949,-1035.0633"/>
<polygon fill="#000000" stroke="#000000" points="207.0522,-1038.2466 214.8591,-1031.084 204.2895,-1031.8148 207.0522,-1038.2466"/>
</g>
<!-- 140575822133288 -->
<g id="node21" class="node">
<title>140575822133288</title>
<polygon fill="#d3d3d3" stroke="#000000" points="137.5,-1159 43.5,-1159 43.5,-1138 137.5,-1138 137.5,-1159"/>
<text text-anchor="middle" x="90.5" y="-1145.4" font-family="Times,serif" font-size="12.00" fill="#000000">ReluBackward0</text>
</g>
<!-- 140575822133288&#45;&gt;140575822131496 -->
<g id="edge20" class="edge">
<title>140575822133288&#45;&gt;140575822131496</title>
<path fill="none" stroke="#000000" d="M90.5,-1137.9317C90.5,-1129.0913 90.5,-1116.2122 90.5,-1105.3135"/>
<polygon fill="#000000" stroke="#000000" points="94.0001,-1105.2979 90.5,-1095.2979 87.0001,-1105.2979 94.0001,-1105.2979"/>
</g>
<!-- 140575822131384 -->
<g id="node22" class="node">
<title>140575822131384</title>
<polygon fill="#d3d3d3" stroke="#000000" points="169,-1216 12,-1216 12,-1195 169,-1195 169,-1216"/>
<text text-anchor="middle" x="90.5" y="-1202.4" font-family="Times,serif" font-size="12.00" fill="#000000">CudnnConvolutionBackward</text>
</g>
<!-- 140575822131384&#45;&gt;140575822133288 -->
<g id="edge21" class="edge">
<title>140575822131384&#45;&gt;140575822133288</title>
<path fill="none" stroke="#000000" d="M90.5,-1194.7787C90.5,-1187.6134 90.5,-1177.9517 90.5,-1169.3097"/>
<polygon fill="#000000" stroke="#000000" points="94.0001,-1169.1732 90.5,-1159.1732 87.0001,-1169.1732 94.0001,-1169.1732"/>
</g>
<!-- 140575822131832 -->
<g id="node23" class="node">
<title>140575822131832</title>
<polygon fill="#add8e6" stroke="#000000" points="87,-1287 12,-1287 12,-1252 87,-1252 87,-1287"/>
<text text-anchor="middle" x="49.5" y="-1259.4" font-family="Times,serif" font-size="12.00" fill="#000000"> (32, 4, 3, 3)</text>
</g>
<!-- 140575822131832&#45;&gt;140575822131384 -->
<g id="edge22" class="edge">
<title>140575822131832&#45;&gt;140575822131384</title>
<path fill="none" stroke="#000000" d="M60.9208,-1251.6724C66.2802,-1243.3066 72.6771,-1233.3212 78.1488,-1224.7799"/>
<polygon fill="#000000" stroke="#000000" points="81.1831,-1226.5318 83.6303,-1216.2234 75.2889,-1222.7558 81.1831,-1226.5318"/>
</g>
<!-- 140575822132616 -->
<g id="node24" class="node">
<title>140575822132616</title>
<polygon fill="#add8e6" stroke="#000000" points="159.5,-1287 105.5,-1287 105.5,-1252 159.5,-1252 159.5,-1287"/>
<text text-anchor="middle" x="132.5" y="-1259.4" font-family="Times,serif" font-size="12.00" fill="#000000"> (32)</text>
</g>
<!-- 140575822132616&#45;&gt;140575822131384 -->
<g id="edge23" class="edge">
<title>140575822132616&#45;&gt;140575822131384</title>
<path fill="none" stroke="#000000" d="M120.8007,-1251.6724C115.3105,-1243.3066 108.7576,-1233.3212 103.1524,-1224.7799"/>
<polygon fill="#000000" stroke="#000000" points="105.95,-1222.6636 97.5373,-1216.2234 100.0977,-1226.5042 105.95,-1222.6636"/>
</g>
<!-- 140575822133400 -->
<g id="node25" class="node">
<title>140575822133400</title>
<polygon fill="#add8e6" stroke="#000000" points="280,-1102 199,-1102 199,-1067 280,-1067 280,-1102"/>
<text text-anchor="middle" x="239.5" y="-1074.4" font-family="Times,serif" font-size="12.00" fill="#000000"> (32, 32, 3, 3)</text>
</g>
<!-- 140575822133400&#45;&gt;140575822133680 -->
<g id="edge24" class="edge">
<title>140575822133400&#45;&gt;140575822133680</title>
<path fill="none" stroke="#000000" d="M239.5,-1066.6724C239.5,-1058.8405 239.5,-1049.5893 239.5,-1041.4323"/>
<polygon fill="#000000" stroke="#000000" points="243.0001,-1041.2234 239.5,-1031.2234 236.0001,-1041.2235 243.0001,-1041.2234"/>
</g>
<!-- 140575822133344 -->
<g id="node26" class="node">
<title>140575822133344</title>
<polygon fill="#add8e6" stroke="#000000" points="352.5,-1102 298.5,-1102 298.5,-1067 352.5,-1067 352.5,-1102"/>
<text text-anchor="middle" x="325.5" y="-1074.4" font-family="Times,serif" font-size="12.00" fill="#000000"> (32)</text>
</g>
<!-- 140575822133344&#45;&gt;140575822133680 -->
<g id="edge25" class="edge">
<title>140575822133344&#45;&gt;140575822133680</title>
<path fill="none" stroke="#000000" d="M301.5442,-1066.6724C289.1462,-1057.446 274.1013,-1046.2498 261.9317,-1037.1934"/>
<polygon fill="#000000" stroke="#000000" points="263.7694,-1034.1981 253.6575,-1031.0358 259.5903,-1039.8138 263.7694,-1034.1981"/>
</g>
<!-- 140575822133904 -->
<g id="node27" class="node">
<title>140575822133904</title>
<polygon fill="#add8e6" stroke="#000000" points="429,-917 348,-917 348,-882 429,-882 429,-917"/>
<text text-anchor="middle" x="388.5" y="-889.4" font-family="Times,serif" font-size="12.00" fill="#000000"> (64, 32, 3, 3)</text>
</g>
<!-- 140575822133904&#45;&gt;140575822134072 -->
<g id="edge26" class="edge">
<title>140575822133904&#45;&gt;140575822134072</title>
<path fill="none" stroke="#000000" d="M388.5,-881.6724C388.5,-873.8405 388.5,-864.5893 388.5,-856.4323"/>
<polygon fill="#000000" stroke="#000000" points="392.0001,-856.2234 388.5,-846.2234 385.0001,-856.2235 392.0001,-856.2234"/>
</g>
<!-- 140575822133848 -->
<g id="node28" class="node">
<title>140575822133848</title>
<polygon fill="#add8e6" stroke="#000000" points="501.5,-917 447.5,-917 447.5,-882 501.5,-882 501.5,-917"/>
<text text-anchor="middle" x="474.5" y="-889.4" font-family="Times,serif" font-size="12.00" fill="#000000"> (64)</text>
</g>
<!-- 140575822133848&#45;&gt;140575822134072 -->
<g id="edge27" class="edge">
<title>140575822133848&#45;&gt;140575822134072</title>
<path fill="none" stroke="#000000" d="M450.5442,-881.6724C438.1462,-872.446 423.1013,-861.2498 410.9317,-852.1934"/>
<polygon fill="#000000" stroke="#000000" points="412.7694,-849.1981 402.6575,-846.0358 408.5903,-854.8138 412.7694,-849.1981"/>
</g>
<!-- 140575822132168 -->
<g id="node29" class="node">
<title>140575822132168</title>
<polygon fill="#add8e6" stroke="#000000" points="578,-732 497,-732 497,-697 578,-697 578,-732"/>
<text text-anchor="middle" x="537.5" y="-704.4" font-family="Times,serif" font-size="12.00" fill="#000000"> (64, 64, 3, 3)</text>
</g>
<!-- 140575822132168&#45;&gt;140575822134296 -->
<g id="edge28" class="edge">
<title>140575822132168&#45;&gt;140575822134296</title>
<path fill="none" stroke="#000000" d="M537.5,-696.6724C537.5,-688.8405 537.5,-679.5893 537.5,-671.4323"/>
<polygon fill="#000000" stroke="#000000" points="541.0001,-671.2234 537.5,-661.2234 534.0001,-671.2235 541.0001,-671.2234"/>
</g>
<!-- 140575822134184 -->
<g id="node30" class="node">
<title>140575822134184</title>
<polygon fill="#add8e6" stroke="#000000" points="650.5,-732 596.5,-732 596.5,-697 650.5,-697 650.5,-732"/>
<text text-anchor="middle" x="623.5" y="-704.4" font-family="Times,serif" font-size="12.00" fill="#000000"> (64)</text>
</g>
<!-- 140575822134184&#45;&gt;140575822134296 -->
<g id="edge29" class="edge">
<title>140575822134184&#45;&gt;140575822134296</title>
<path fill="none" stroke="#000000" d="M599.5442,-696.6724C587.1462,-687.446 572.1013,-676.2498 559.9317,-667.1934"/>
<polygon fill="#000000" stroke="#000000" points="561.7694,-664.1981 551.6575,-661.0358 557.5903,-669.8138 561.7694,-664.1981"/>
</g>
<!-- 140575822132392 -->
<g id="node31" class="node">
<title>140575822132392</title>
<polygon fill="#add8e6" stroke="#000000" points="727,-547 646,-547 646,-512 727,-512 727,-547"/>
<text text-anchor="middle" x="686.5" y="-519.4" font-family="Times,serif" font-size="12.00" fill="#000000"> (64, 64, 3, 3)</text>
</g>
<!-- 140575822132392&#45;&gt;140575822133064 -->
<g id="edge30" class="edge">
<title>140575822132392&#45;&gt;140575822133064</title>
<path fill="none" stroke="#000000" d="M686.5,-511.6724C686.5,-503.8405 686.5,-494.5893 686.5,-486.4323"/>
<polygon fill="#000000" stroke="#000000" points="690.0001,-486.2234 686.5,-476.2234 683.0001,-486.2235 690.0001,-486.2234"/>
</g>
<!-- 140575822134408 -->
<g id="node32" class="node">
<title>140575822134408</title>
<polygon fill="#add8e6" stroke="#000000" points="799.5,-547 745.5,-547 745.5,-512 799.5,-512 799.5,-547"/>
<text text-anchor="middle" x="772.5" y="-519.4" font-family="Times,serif" font-size="12.00" fill="#000000"> (64)</text>
</g>
<!-- 140575822134408&#45;&gt;140575822133064 -->
<g id="edge31" class="edge">
<title>140575822134408&#45;&gt;140575822133064</title>
<path fill="none" stroke="#000000" d="M748.5442,-511.6724C736.1462,-502.446 721.1013,-491.2498 708.9317,-482.1934"/>
<polygon fill="#000000" stroke="#000000" points="710.7694,-479.1981 700.6575,-476.0358 706.5903,-484.8138 710.7694,-479.1981"/>
</g>
<!-- 140575822132840 -->
<g id="node33" class="node">
<title>140575822132840</title>
<polygon fill="#d3d3d3" stroke="#000000" points="925,-341 852,-341 852,-320 925,-320 925,-341"/>
<text text-anchor="middle" x="888.5" y="-327.4" font-family="Times,serif" font-size="12.00" fill="#000000">TBackward</text>
</g>
<!-- 140575822132840&#45;&gt;140575822133568 -->
<g id="edge32" class="edge">
<title>140575822132840&#45;&gt;140575822133568</title>
<path fill="none" stroke="#000000" d="M878.3241,-319.7166C867.8956,-308.6655 851.4804,-291.2703 838.9689,-278.0118"/>
<polygon fill="#000000" stroke="#000000" points="841.1804,-275.2557 831.7716,-270.3849 836.0893,-280.06 841.1804,-275.2557"/>
</g>
<!-- 140575822133176 -->
<g id="node34" class="node">
<title>140575822133176</title>
<polygon fill="#add8e6" stroke="#000000" points="926,-419 851,-419 851,-384 926,-384 926,-419"/>
<text text-anchor="middle" x="888.5" y="-391.4" font-family="Times,serif" font-size="12.00" fill="#000000"> (512, 1024)</text>
</g>
<!-- 140575822133176&#45;&gt;140575822132840 -->
<g id="edge33" class="edge">
<title>140575822133176&#45;&gt;140575822132840</title>
<path fill="none" stroke="#000000" d="M888.5,-383.9494C888.5,-374.058 888.5,-361.6435 888.5,-351.2693"/>
<polygon fill="#000000" stroke="#000000" points="892.0001,-351.0288 888.5,-341.0288 885.0001,-351.0289 892.0001,-351.0288"/>
</g>
<!-- 140575822131328 -->
<g id="node35" class="node">
<title>140575822131328</title>
<polygon fill="#d3d3d3" stroke="#000000" points="996,-199 923,-199 923,-178 996,-178 996,-199"/>
<text text-anchor="middle" x="959.5" y="-185.4" font-family="Times,serif" font-size="12.00" fill="#000000">TBackward</text>
</g>
<!-- 140575822131328&#45;&gt;140575827818872 -->
<g id="edge34" class="edge">
<title>140575822131328&#45;&gt;140575827818872</title>
<path fill="none" stroke="#000000" d="M932.4187,-177.9317C904.9996,-167.2316 862.4187,-150.6146 832.0262,-138.7541"/>
<polygon fill="#000000" stroke="#000000" points="833.2097,-135.459 822.6215,-135.084 830.6649,-141.98 833.2097,-135.459"/>
</g>
<!-- 140575822132504 -->
<g id="node36" class="node">
<title>140575822132504</title>
<polygon fill="#add8e6" stroke="#000000" points="988,-277 931,-277 931,-242 988,-242 988,-277"/>
<text text-anchor="middle" x="959.5" y="-249.4" font-family="Times,serif" font-size="12.00" fill="#000000"> (1, 512)</text>
</g>
<!-- 140575822132504&#45;&gt;140575822131328 -->
<g id="edge35" class="edge">
<title>140575822132504&#45;&gt;140575822131328</title>
<path fill="none" stroke="#000000" d="M959.5,-241.9494C959.5,-232.058 959.5,-219.6435 959.5,-209.2693"/>
<polygon fill="#000000" stroke="#000000" points="963.0001,-209.0288 959.5,-199.0288 956.0001,-209.0289 963.0001,-209.0288"/>
</g>
<!-- 140575827818928 -->
<g id="node37" class="node">
<title>140575827818928</title>
<polygon fill="#d3d3d3" stroke="#000000" points="704.5,-135 600.5,-135 600.5,-114 704.5,-114 704.5,-135"/>
<text text-anchor="middle" x="652.5" y="-121.4" font-family="Times,serif" font-size="12.00" fill="#000000">AddmmBackward</text>
</g>
<!-- 140575827818928&#45;&gt;140575828012784 -->
<g id="edge36" class="edge">
<title>140575827818928&#45;&gt;140575828012784</title>
<path fill="none" stroke="#000000" d="M673.4896,-113.9123C690.932,-105.114 715.9675,-92.4854 735.5213,-82.622"/>
<polygon fill="#000000" stroke="#000000" points="737.2707,-85.6597 744.6228,-78.031 734.1181,-79.4098 737.2707,-85.6597"/>
</g>
<!-- 140575827819208 -->
<g id="node46" class="node">
<title>140575827819208</title>
<polygon fill="#d3d3d3" stroke="#000000" points="701.5,-78 603.5,-78 603.5,-57 701.5,-57 701.5,-78"/>
<text text-anchor="middle" x="652.5" y="-64.4" font-family="Times,serif" font-size="12.00" fill="#000000">MeanBackward0</text>
</g>
<!-- 140575827818928&#45;&gt;140575827819208 -->
<g id="edge47" class="edge">
<title>140575827818928&#45;&gt;140575827819208</title>
<path fill="none" stroke="#000000" d="M652.5,-113.7787C652.5,-106.6134 652.5,-96.9517 652.5,-88.3097"/>
<polygon fill="#000000" stroke="#000000" points="656.0001,-88.1732 652.5,-78.1732 649.0001,-88.1732 656.0001,-88.1732"/>
</g>
<!-- 140575822132952 -->
<g id="node38" class="node">
<title>140575822132952</title>
<polygon fill="#add8e6" stroke="#000000" points="628.5,-206 574.5,-206 574.5,-171 628.5,-171 628.5,-206"/>
<text text-anchor="middle" x="601.5" y="-178.4" font-family="Times,serif" font-size="12.00" fill="#000000"> (4)</text>
</g>
<!-- 140575822132952&#45;&gt;140575827818928 -->
<g id="edge37" class="edge">
<title>140575822132952&#45;&gt;140575827818928</title>
<path fill="none" stroke="#000000" d="M615.7063,-170.6724C622.5147,-162.1286 630.6692,-151.8955 637.5692,-143.2367"/>
<polygon fill="#000000" stroke="#000000" points="640.4599,-145.2253 643.9548,-135.2234 634.9855,-140.8628 640.4599,-145.2253"/>
</g>
<!-- 140575822133624 -->
<g id="node39" class="node">
<title>140575822133624</title>
<polygon fill="#d3d3d3" stroke="#000000" points="556.5,-199 462.5,-199 462.5,-178 556.5,-178 556.5,-199"/>
<text text-anchor="middle" x="509.5" y="-185.4" font-family="Times,serif" font-size="12.00" fill="#000000">ReluBackward0</text>
</g>
<!-- 140575822133624&#45;&gt;140575827818928 -->
<g id="edge38" class="edge">
<title>140575822133624&#45;&gt;140575827818928</title>
<path fill="none" stroke="#000000" d="M533.1135,-177.9317C556.7112,-167.3705 593.188,-151.0452 619.6131,-139.2186"/>
<polygon fill="#000000" stroke="#000000" points="621.1536,-142.3638 628.8514,-135.084 618.294,-135.9745 621.1536,-142.3638"/>
</g>
<!-- 140575822132336&#45;&gt;140575822133624 -->
<g id="edge39" class="edge">
<title>140575822132336&#45;&gt;140575822133624</title>
<path fill="none" stroke="#000000" d="M524.7662,-248.7166C522.1231,-238.291 518.0485,-222.2192 514.7735,-209.3011"/>
<polygon fill="#000000" stroke="#000000" points="518.1098,-208.2181 512.2595,-199.3849 511.3244,-209.9383 518.1098,-208.2181"/>
</g>
<!-- 140575822132280 -->
<g id="node41" class="node">
<title>140575822132280</title>
<polygon fill="#add8e6" stroke="#000000" points="513.5,-348 459.5,-348 459.5,-313 513.5,-313 513.5,-348"/>
<text text-anchor="middle" x="486.5" y="-320.4" font-family="Times,serif" font-size="12.00" fill="#000000"> (512)</text>
</g>
<!-- 140575822132280&#45;&gt;140575822132336 -->
<g id="edge40" class="edge">
<title>140575822132280&#45;&gt;140575822132336</title>
<path fill="none" stroke="#000000" d="M496.6348,-312.9494C502.5899,-302.6371 510.1285,-289.5824 516.2646,-278.9563"/>
<polygon fill="#000000" stroke="#000000" points="519.4501,-280.439 521.42,-270.0288 513.3882,-276.9384 519.4501,-280.439"/>
</g>
<!-- 140575822131776 -->
<g id="node42" class="node">
<title>140575822131776</title>
<polygon fill="#d3d3d3" stroke="#000000" points="605,-341 532,-341 532,-320 605,-320 605,-341"/>
<text text-anchor="middle" x="568.5" y="-327.4" font-family="Times,serif" font-size="12.00" fill="#000000">TBackward</text>
</g>
<!-- 140575822131776&#45;&gt;140575822132336 -->
<g id="edge42" class="edge">
<title>140575822131776&#45;&gt;140575822132336</title>
<path fill="none" stroke="#000000" d="M562.273,-319.7166C556.0719,-308.9782 546.4119,-292.2498 538.8456,-279.1472"/>
<polygon fill="#000000" stroke="#000000" points="541.8174,-277.2944 533.7856,-270.3849 535.7555,-280.795 541.8174,-277.2944"/>
</g>
<!-- 140575822131272 -->
<g id="node43" class="node">
<title>140575822131272</title>
<polygon fill="#add8e6" stroke="#000000" points="606,-419 531,-419 531,-384 606,-384 606,-419"/>
<text text-anchor="middle" x="568.5" y="-391.4" font-family="Times,serif" font-size="12.00" fill="#000000"> (512, 1024)</text>
</g>
<!-- 140575822131272&#45;&gt;140575822131776 -->
<g id="edge43" class="edge">
<title>140575822131272&#45;&gt;140575822131776</title>
<path fill="none" stroke="#000000" d="M568.5,-383.9494C568.5,-374.058 568.5,-361.6435 568.5,-351.2693"/>
<polygon fill="#000000" stroke="#000000" points="572.0001,-351.0288 568.5,-341.0288 565.0001,-351.0289 572.0001,-351.0288"/>
</g>
<!-- 140575822132112 -->
<g id="node44" class="node">
<title>140575822132112</title>
<polygon fill="#d3d3d3" stroke="#000000" points="720,-199 647,-199 647,-178 720,-178 720,-199"/>
<text text-anchor="middle" x="683.5" y="-185.4" font-family="Times,serif" font-size="12.00" fill="#000000">TBackward</text>
</g>
<!-- 140575822132112&#45;&gt;140575827818928 -->
<g id="edge44" class="edge">
<title>140575822132112&#45;&gt;140575827818928</title>
<path fill="none" stroke="#000000" d="M678.381,-177.9317C673.9651,-168.8151 667.4688,-155.4033 662.0895,-144.2977"/>
<polygon fill="#000000" stroke="#000000" points="665.2395,-142.772 657.7302,-135.2979 658.9396,-145.8235 665.2395,-142.772"/>
</g>
<!-- 140575822132224 -->
<g id="node45" class="node">
<title>140575822132224</title>
<polygon fill="#add8e6" stroke="#000000" points="712,-277 655,-277 655,-242 712,-242 712,-277"/>
<text text-anchor="middle" x="683.5" y="-249.4" font-family="Times,serif" font-size="12.00" fill="#000000"> (4, 512)</text>
</g>
<!-- 140575822132224&#45;&gt;140575822132112 -->
<g id="edge45" class="edge">
<title>140575822132224&#45;&gt;140575822132112</title>
<path fill="none" stroke="#000000" d="M683.5,-241.9494C683.5,-232.058 683.5,-219.6435 683.5,-209.2693"/>
<polygon fill="#000000" stroke="#000000" points="687.0001,-209.0288 683.5,-199.0288 680.0001,-209.0289 687.0001,-209.0288"/>
</g>
<!-- 140575827819208&#45;&gt;140575821930336 -->
<g id="edge46" class="edge">
<title>140575827819208&#45;&gt;140575821930336</title>
<path fill="none" stroke="#000000" d="M663.0332,-56.7787C670.855,-48.8173 681.7046,-37.7739 690.8436,-28.4717"/>
<polygon fill="#000000" stroke="#000000" points="693.5025,-30.7595 698.0141,-21.1732 688.5091,-25.8537 693.5025,-30.7595"/>
</g>
</g>
</svg>
