<?xml version="1.0" encoding="UTF-8"?>
<svg xmlns="http://www.w3.org/2000/svg" xmlns:xlink="http://www.w3.org/1999/xlink" width="947pt" height="249pt" viewBox="0 0 947 249" version="1.1">
<defs>
<g>
<symbol overflow="visible" id="glyph0-0">
<path style="stroke:none;" d="M 0.640625 2.265625 L 0.640625 -9.015625 L 7.03125 -9.015625 L 7.03125 2.265625 Z M 1.359375 1.546875 L 6.328125 1.546875 L 6.328125 -8.296875 L 1.359375 -8.296875 Z M 1.359375 1.546875 "/>
</symbol>
<symbol overflow="visible" id="glyph0-1">
<path style="stroke:none;" d="M 8.234375 -8.609375 L 8.234375 -7.28125 C 7.816406 -7.675781 7.363281 -7.96875 6.875 -8.15625 C 6.394531 -8.351562 5.882812 -8.453125 5.34375 -8.453125 C 4.28125 -8.453125 3.460938 -8.125 2.890625 -7.46875 C 2.328125 -6.820312 2.046875 -5.882812 2.046875 -4.65625 C 2.046875 -3.425781 2.328125 -2.484375 2.890625 -1.828125 C 3.460938 -1.179688 4.28125 -0.859375 5.34375 -0.859375 C 5.882812 -0.859375 6.394531 -0.953125 6.875 -1.140625 C 7.363281 -1.335938 7.816406 -1.632812 8.234375 -2.03125 L 8.234375 -0.71875 C 7.796875 -0.414062 7.328125 -0.1875 6.828125 -0.03125 C 6.335938 0.113281 5.820312 0.1875 5.28125 0.1875 C 3.863281 0.1875 2.75 -0.242188 1.9375 -1.109375 C 1.125 -1.972656 0.71875 -3.15625 0.71875 -4.65625 C 0.71875 -6.15625 1.125 -7.335938 1.9375 -8.203125 C 2.75 -9.066406 3.863281 -9.5 5.28125 -9.5 C 5.832031 -9.5 6.351562 -9.421875 6.84375 -9.265625 C 7.34375 -9.117188 7.804688 -8.898438 8.234375 -8.609375 Z M 8.234375 -8.609375 "/>
</symbol>
<symbol overflow="visible" id="glyph0-2">
<path style="stroke:none;" d="M 5.046875 -8.46875 C 4.128906 -8.46875 3.398438 -8.125 2.859375 -7.4375 C 2.316406 -6.757812 2.046875 -5.832031 2.046875 -4.65625 C 2.046875 -3.476562 2.316406 -2.546875 2.859375 -1.859375 C 3.398438 -1.179688 4.128906 -0.84375 5.046875 -0.84375 C 5.960938 -0.84375 6.6875 -1.179688 7.21875 -1.859375 C 7.75 -2.546875 8.015625 -3.476562 8.015625 -4.65625 C 8.015625 -5.832031 7.75 -6.757812 7.21875 -7.4375 C 6.6875 -8.125 5.960938 -8.46875 5.046875 -8.46875 Z M 5.046875 -9.5 C 6.347656 -9.5 7.390625 -9.054688 8.171875 -8.171875 C 8.960938 -7.296875 9.359375 -6.125 9.359375 -4.65625 C 9.359375 -3.1875 8.960938 -2.007812 8.171875 -1.125 C 7.390625 -0.25 6.347656 0.1875 5.046875 0.1875 C 3.734375 0.1875 2.679688 -0.25 1.890625 -1.125 C 1.109375 -2 0.71875 -3.175781 0.71875 -4.65625 C 0.71875 -6.125 1.109375 -7.296875 1.890625 -8.171875 C 2.679688 -9.054688 3.734375 -9.5 5.046875 -9.5 Z M 5.046875 -9.5 "/>
</symbol>
<symbol overflow="visible" id="glyph0-3">
<path style="stroke:none;" d="M 1.25 -9.328125 L 2.953125 -9.328125 L 7.09375 -1.53125 L 7.09375 -9.328125 L 8.3125 -9.328125 L 8.3125 0 L 6.609375 0 L 2.484375 -7.796875 L 2.484375 0 L 1.25 0 Z M 1.25 -9.328125 "/>
</symbol>
<symbol overflow="visible" id="glyph0-4">
<path style="stroke:none;" d="M 3.65625 0 L 0.09375 -9.328125 L 1.421875 -9.328125 L 4.375 -1.46875 L 7.328125 -9.328125 L 8.640625 -9.328125 L 5.09375 0 Z M 3.65625 0 "/>
</symbol>
<symbol overflow="visible" id="glyph0-5">
<path style="stroke:none;" d="M 1.25 -9.328125 L 6.609375 -9.328125 L 6.609375 -8.265625 L 2.515625 -8.265625 L 2.515625 -5.515625 L 6.21875 -5.515625 L 6.21875 -4.453125 L 2.515625 -4.453125 L 2.515625 0 L 1.25 0 Z M 1.25 -9.328125 "/>
</symbol>
<symbol overflow="visible" id="glyph0-6">
<path style="stroke:none;" d="M 1.25 -9.328125 L 2.515625 -9.328125 L 2.515625 0 L 1.25 0 Z M 1.25 -9.328125 "/>
</symbol>
<symbol overflow="visible" id="glyph0-7">
<path style="stroke:none;" d="M 6.84375 -9.015625 L 6.84375 -7.796875 C 6.363281 -8.023438 5.910156 -8.191406 5.484375 -8.296875 C 5.066406 -8.410156 4.660156 -8.46875 4.265625 -8.46875 C 3.578125 -8.46875 3.046875 -8.332031 2.671875 -8.0625 C 2.296875 -7.800781 2.109375 -7.425781 2.109375 -6.9375 C 2.109375 -6.519531 2.234375 -6.207031 2.484375 -6 C 2.734375 -5.789062 3.203125 -5.625 3.890625 -5.5 L 4.65625 -5.34375 C 5.59375 -5.15625 6.285156 -4.835938 6.734375 -4.390625 C 7.179688 -3.941406 7.40625 -3.335938 7.40625 -2.578125 C 7.40625 -1.671875 7.101562 -0.984375 6.5 -0.515625 C 5.894531 -0.046875 5.007812 0.1875 3.84375 0.1875 C 3.394531 0.1875 2.921875 0.132812 2.421875 0.03125 C 1.929688 -0.0703125 1.414062 -0.21875 0.875 -0.40625 L 0.875 -1.71875 C 1.394531 -1.425781 1.898438 -1.207031 2.390625 -1.0625 C 2.878906 -0.914062 3.363281 -0.84375 3.84375 -0.84375 C 4.5625 -0.84375 5.113281 -0.984375 5.5 -1.265625 C 5.894531 -1.546875 6.09375 -1.953125 6.09375 -2.484375 C 6.09375 -2.941406 5.953125 -3.296875 5.671875 -3.546875 C 5.390625 -3.804688 4.925781 -4.003906 4.28125 -4.140625 L 3.515625 -4.28125 C 2.578125 -4.46875 1.894531 -4.757812 1.46875 -5.15625 C 1.050781 -5.5625 0.84375 -6.117188 0.84375 -6.828125 C 0.84375 -7.660156 1.132812 -8.3125 1.71875 -8.78125 C 2.300781 -9.257812 3.101562 -9.5 4.125 -9.5 C 4.5625 -9.5 5.003906 -9.457031 5.453125 -9.375 C 5.910156 -9.300781 6.375 -9.179688 6.84375 -9.015625 Z M 6.84375 -9.015625 "/>
</symbol>
<symbol overflow="visible" id="glyph0-8">
<path style="stroke:none;" d="M 1.25 -9.328125 L 7.15625 -9.328125 L 7.15625 -8.265625 L 2.515625 -8.265625 L 2.515625 -5.5 L 6.953125 -5.5 L 6.953125 -4.4375 L 2.515625 -4.4375 L 2.515625 -1.0625 L 7.265625 -1.0625 L 7.265625 0 L 1.25 0 Z M 1.25 -9.328125 "/>
</symbol>
<symbol overflow="visible" id="glyph0-9">
<path style="stroke:none;" d="M 1.59375 -1.0625 L 3.65625 -1.0625 L 3.65625 -8.171875 L 1.40625 -7.734375 L 1.40625 -8.875 L 3.640625 -9.328125 L 4.90625 -9.328125 L 4.90625 -1.0625 L 6.953125 -1.0625 L 6.953125 0 L 1.59375 0 Z M 1.59375 -1.0625 "/>
</symbol>
<symbol overflow="visible" id="glyph0-10">
<path style="stroke:none;" d="M 7.015625 -7 L 4.5 -3.59375 L 7.15625 0 L 5.796875 0 L 3.765625 -2.75 L 1.71875 0 L 0.375 0 L 3.09375 -3.65625 L 0.59375 -7 L 1.953125 -7 L 3.8125 -4.5 L 5.671875 -7 Z M 7.015625 -7 "/>
</symbol>
<symbol overflow="visible" id="glyph0-11">
<path style="stroke:none;" d="M 5.671875 -6.796875 L 5.671875 -5.703125 C 5.347656 -5.867188 5.007812 -5.992188 4.65625 -6.078125 C 4.300781 -6.160156 3.9375 -6.203125 3.5625 -6.203125 C 3 -6.203125 2.570312 -6.113281 2.28125 -5.9375 C 2 -5.769531 1.859375 -5.507812 1.859375 -5.15625 C 1.859375 -4.882812 1.957031 -4.671875 2.15625 -4.515625 C 2.363281 -4.367188 2.773438 -4.226562 3.390625 -4.09375 L 3.78125 -4 C 4.601562 -3.832031 5.1875 -3.585938 5.53125 -3.265625 C 5.875 -2.941406 6.046875 -2.5 6.046875 -1.9375 C 6.046875 -1.28125 5.785156 -0.757812 5.265625 -0.375 C 4.753906 0 4.050781 0.1875 3.15625 0.1875 C 2.78125 0.1875 2.390625 0.148438 1.984375 0.078125 C 1.578125 0.00390625 1.144531 -0.101562 0.6875 -0.25 L 0.6875 -1.4375 C 1.113281 -1.21875 1.53125 -1.050781 1.9375 -0.9375 C 2.351562 -0.832031 2.765625 -0.78125 3.171875 -0.78125 C 3.710938 -0.78125 4.128906 -0.875 4.421875 -1.0625 C 4.710938 -1.25 4.859375 -1.507812 4.859375 -1.84375 C 4.859375 -2.15625 4.753906 -2.394531 4.546875 -2.5625 C 4.335938 -2.726562 3.875 -2.890625 3.15625 -3.046875 L 2.765625 -3.140625 C 2.046875 -3.285156 1.53125 -3.515625 1.21875 -3.828125 C 0.90625 -4.140625 0.75 -4.566406 0.75 -5.109375 C 0.75 -5.765625 0.976562 -6.269531 1.4375 -6.625 C 1.90625 -6.988281 2.570312 -7.171875 3.4375 -7.171875 C 3.851562 -7.171875 4.25 -7.140625 4.625 -7.078125 C 5 -7.015625 5.347656 -6.921875 5.671875 -6.796875 Z M 5.671875 -6.796875 "/>
</symbol>
<symbol overflow="visible" id="glyph0-12">
<path style="stroke:none;" d="M 1.203125 -7 L 2.359375 -7 L 2.359375 0 L 1.203125 0 Z M 1.203125 -9.71875 L 2.359375 -9.71875 L 2.359375 -8.265625 L 1.203125 -8.265625 Z M 1.203125 -9.71875 "/>
</symbol>
<symbol overflow="visible" id="glyph0-13">
<path style="stroke:none;" d="M 5.8125 -3.578125 C 5.8125 -4.410156 5.640625 -5.054688 5.296875 -5.515625 C 4.953125 -5.972656 4.46875 -6.203125 3.84375 -6.203125 C 3.226562 -6.203125 2.75 -5.972656 2.40625 -5.515625 C 2.0625 -5.054688 1.890625 -4.410156 1.890625 -3.578125 C 1.890625 -2.753906 2.0625 -2.113281 2.40625 -1.65625 C 2.75 -1.195312 3.226562 -0.96875 3.84375 -0.96875 C 4.46875 -0.96875 4.953125 -1.195312 5.296875 -1.65625 C 5.640625 -2.113281 5.8125 -2.753906 5.8125 -3.578125 Z M 6.953125 -0.875 C 6.953125 0.320312 6.6875 1.207031 6.15625 1.78125 C 5.632812 2.363281 4.828125 2.65625 3.734375 2.65625 C 3.328125 2.65625 2.945312 2.625 2.59375 2.5625 C 2.238281 2.507812 1.890625 2.421875 1.546875 2.296875 L 1.546875 1.171875 C 1.890625 1.359375 2.222656 1.492188 2.546875 1.578125 C 2.878906 1.671875 3.21875 1.71875 3.5625 1.71875 C 4.3125 1.71875 4.875 1.519531 5.25 1.125 C 5.625 0.726562 5.8125 0.132812 5.8125 -0.65625 L 5.8125 -1.234375 C 5.570312 -0.816406 5.265625 -0.503906 4.890625 -0.296875 C 4.523438 -0.0976562 4.082031 0 3.5625 0 C 2.707031 0 2.015625 -0.328125 1.484375 -0.984375 C 0.960938 -1.640625 0.703125 -2.503906 0.703125 -3.578125 C 0.703125 -4.660156 0.960938 -5.53125 1.484375 -6.1875 C 2.015625 -6.84375 2.707031 -7.171875 3.5625 -7.171875 C 4.082031 -7.171875 4.523438 -7.066406 4.890625 -6.859375 C 5.265625 -6.648438 5.570312 -6.34375 5.8125 -5.9375 L 5.8125 -7 L 6.953125 -7 Z M 6.953125 -0.875 "/>
</symbol>
<symbol overflow="visible" id="glyph0-14">
<path style="stroke:none;" d="M 6.65625 -5.65625 C 6.9375 -6.164062 7.273438 -6.546875 7.671875 -6.796875 C 8.078125 -7.046875 8.550781 -7.171875 9.09375 -7.171875 C 9.820312 -7.171875 10.382812 -6.914062 10.78125 -6.40625 C 11.175781 -5.894531 11.375 -5.164062 11.375 -4.21875 L 11.375 0 L 10.21875 0 L 10.21875 -4.1875 C 10.21875 -4.851562 10.097656 -5.347656 9.859375 -5.671875 C 9.628906 -6.003906 9.269531 -6.171875 8.78125 -6.171875 C 8.1875 -6.171875 7.710938 -5.972656 7.359375 -5.578125 C 7.015625 -5.179688 6.84375 -4.640625 6.84375 -3.953125 L 6.84375 0 L 5.6875 0 L 5.6875 -4.1875 C 5.6875 -4.863281 5.566406 -5.363281 5.328125 -5.6875 C 5.097656 -6.007812 4.734375 -6.171875 4.234375 -6.171875 C 3.648438 -6.171875 3.179688 -5.96875 2.828125 -5.5625 C 2.484375 -5.164062 2.3125 -4.628906 2.3125 -3.953125 L 2.3125 0 L 1.15625 0 L 1.15625 -7 L 2.3125 -7 L 2.3125 -5.90625 C 2.582031 -6.332031 2.898438 -6.648438 3.265625 -6.859375 C 3.628906 -7.066406 4.0625 -7.171875 4.5625 -7.171875 C 5.070312 -7.171875 5.503906 -7.039062 5.859375 -6.78125 C 6.222656 -6.519531 6.488281 -6.144531 6.65625 -5.65625 Z M 6.65625 -5.65625 "/>
</symbol>
<symbol overflow="visible" id="glyph0-15">
<path style="stroke:none;" d="M 3.921875 -6.1875 C 3.304688 -6.1875 2.816406 -5.945312 2.453125 -5.46875 C 2.097656 -4.988281 1.921875 -4.332031 1.921875 -3.5 C 1.921875 -2.65625 2.097656 -1.992188 2.453125 -1.515625 C 2.804688 -1.035156 3.296875 -0.796875 3.921875 -0.796875 C 4.535156 -0.796875 5.019531 -1.035156 5.375 -1.515625 C 5.726562 -2.003906 5.90625 -2.664062 5.90625 -3.5 C 5.90625 -4.320312 5.726562 -4.972656 5.375 -5.453125 C 5.019531 -5.941406 4.535156 -6.1875 3.921875 -6.1875 Z M 3.921875 -7.171875 C 4.921875 -7.171875 5.703125 -6.84375 6.265625 -6.1875 C 6.835938 -5.539062 7.125 -4.644531 7.125 -3.5 C 7.125 -2.351562 6.835938 -1.453125 6.265625 -0.796875 C 5.703125 -0.140625 4.921875 0.1875 3.921875 0.1875 C 2.910156 0.1875 2.117188 -0.140625 1.546875 -0.796875 C 0.984375 -1.453125 0.703125 -2.351562 0.703125 -3.5 C 0.703125 -4.644531 0.984375 -5.539062 1.546875 -6.1875 C 2.117188 -6.84375 2.910156 -7.171875 3.921875 -7.171875 Z M 3.921875 -7.171875 "/>
</symbol>
<symbol overflow="visible" id="glyph0-16">
<path style="stroke:none;" d="M 5.8125 -5.9375 L 5.8125 -9.71875 L 6.953125 -9.71875 L 6.953125 0 L 5.8125 0 L 5.8125 -1.046875 C 5.570312 -0.628906 5.265625 -0.316406 4.890625 -0.109375 C 4.523438 0.0859375 4.082031 0.1875 3.5625 0.1875 C 2.71875 0.1875 2.03125 -0.148438 1.5 -0.828125 C 0.96875 -1.503906 0.703125 -2.394531 0.703125 -3.5 C 0.703125 -4.59375 0.96875 -5.476562 1.5 -6.15625 C 2.03125 -6.832031 2.71875 -7.171875 3.5625 -7.171875 C 4.082031 -7.171875 4.523438 -7.066406 4.890625 -6.859375 C 5.265625 -6.660156 5.570312 -6.351562 5.8125 -5.9375 Z M 1.890625 -3.5 C 1.890625 -2.644531 2.0625 -1.976562 2.40625 -1.5 C 2.757812 -1.019531 3.238281 -0.78125 3.84375 -0.78125 C 4.457031 -0.78125 4.9375 -1.019531 5.28125 -1.5 C 5.632812 -1.976562 5.8125 -2.644531 5.8125 -3.5 C 5.8125 -4.34375 5.632812 -5.003906 5.28125 -5.484375 C 4.9375 -5.960938 4.457031 -6.203125 3.84375 -6.203125 C 3.238281 -6.203125 2.757812 -5.960938 2.40625 -5.484375 C 2.0625 -5.003906 1.890625 -4.34375 1.890625 -3.5 Z M 1.890625 -3.5 "/>
</symbol>
</g>
</defs>
<g id="surface89853">
<rect x="0" y="0" width="947" height="249" style="fill:rgb(100%,100%,100%);fill-opacity:1;stroke:none;"/>
<path style="fill:none;stroke-width:0.1;stroke-linecap:butt;stroke-linejoin:miter;stroke:rgb(0%,0%,0%);stroke-opacity:1;stroke-miterlimit:10;" d="M -6.812097 22.008594 L -5.833386 21.996094 " transform="matrix(20,0,0,20,138.253663,-323)"/>
<path style="fill-rule:evenodd;fill:rgb(0%,0%,0%);fill-opacity:1;stroke-width:0.1;stroke-linecap:butt;stroke-linejoin:miter;stroke:rgb(0%,0%,0%);stroke-opacity:1;stroke-miterlimit:10;" d="M -5.458386 21.991406 L -5.955261 22.247656 L -5.833386 21.996094 L -5.961707 21.747852 Z M -5.458386 21.991406 " transform="matrix(20,0,0,20,138.253663,-323)"/>
<path style="fill-rule:evenodd;fill:rgb(100%,60.392159%,58.823532%);fill-opacity:1;stroke-width:0.1;stroke-linecap:butt;stroke-linejoin:miter;stroke:rgb(0%,0%,0%);stroke-opacity:1;stroke-miterlimit:10;" d="M -5.346668 19.452539 L -0.786707 19.452539 L -0.786707 24.527539 L -5.346668 24.527539 Z M -5.346668 19.452539 " transform="matrix(20,0,0,20,138.253663,-323)"/>
<g style="fill:rgb(0%,0%,0%);fill-opacity:1;">
  <use xlink:href="#glyph0-1" x="58.265625" y="120.705187"/>
  <use xlink:href="#glyph0-2" x="67.203071" y="120.705187"/>
  <use xlink:href="#glyph0-3" x="77.277941" y="120.705187"/>
  <use xlink:href="#glyph0-4" x="86.852865" y="120.705187"/>
</g>
<path style="fill-rule:evenodd;fill:rgb(100%,60.392159%,58.823532%);fill-opacity:1;stroke-width:0.1;stroke-linecap:butt;stroke-linejoin:miter;stroke:rgb(0%,0%,0%);stroke-opacity:1;stroke-miterlimit:10;" d="M 0.655872 19.448242 L 5.215832 19.448242 L 5.215832 24.523242 L 0.655872 24.523242 Z M 0.655872 19.448242 " transform="matrix(20,0,0,20,138.253663,-323)"/>
<g style="fill:rgb(0%,0%,0%);fill-opacity:1;">
  <use xlink:href="#glyph0-1" x="178.316406" y="120.619249"/>
  <use xlink:href="#glyph0-2" x="187.253852" y="120.619249"/>
  <use xlink:href="#glyph0-3" x="197.328722" y="120.619249"/>
  <use xlink:href="#glyph0-4" x="206.903646" y="120.619249"/>
</g>
<path style="fill:none;stroke-width:0.1;stroke-linecap:butt;stroke-linejoin:miter;stroke:rgb(0%,0%,0%);stroke-opacity:1;stroke-miterlimit:10;" d="M -0.786707 21.990039 L 0.168957 21.987109 " transform="matrix(20,0,0,20,138.253663,-323)"/>
<path style="fill-rule:evenodd;fill:rgb(0%,0%,0%);fill-opacity:1;stroke-width:0.1;stroke-linecap:butt;stroke-linejoin:miter;stroke:rgb(0%,0%,0%);stroke-opacity:1;stroke-miterlimit:10;" d="M 0.543957 21.985937 L 0.0447387 22.2375 L 0.168957 21.987109 L 0.0431762 21.7375 Z M 0.543957 21.985937 " transform="matrix(20,0,0,20,138.253663,-323)"/>
<path style="fill-rule:evenodd;fill:rgb(58.823532%,61.176473%,100%);fill-opacity:1;stroke-width:0.1;stroke-linecap:butt;stroke-linejoin:miter;stroke:rgb(0%,0%,0%);stroke-opacity:1;stroke-miterlimit:10;" d="M 28.482043 19.314844 L 31.869543 19.314844 L 31.869543 24.608398 L 28.482043 24.608398 Z M 28.482043 19.314844 " transform="matrix(20,0,0,20,138.253663,-323)"/>
<g style="fill:rgb(0%,0%,0%);fill-opacity:1;">
  <use xlink:href="#glyph0-5" x="733.625" y="120.13878"/>
  <use xlink:href="#glyph0-1" x="740.987467" y="120.13878"/>
</g>
<path style="fill-rule:evenodd;fill:rgb(58.823532%,61.176473%,100%);fill-opacity:1;stroke-width:0.1;stroke-linecap:butt;stroke-linejoin:miter;stroke:rgb(0%,0%,0%);stroke-opacity:1;stroke-miterlimit:10;" d="M 34.500012 23.247656 L 37.637512 23.247656 L 37.637512 28.541211 L 34.500012 28.541211 Z M 34.500012 23.247656 " transform="matrix(20,0,0,20,138.253663,-323)"/>
<g style="fill:rgb(0%,0%,0%);fill-opacity:1;">
  <use xlink:href="#glyph0-5" x="851.484375" y="198.79503"/>
  <use xlink:href="#glyph0-1" x="858.846842" y="198.79503"/>
</g>
<path style="fill-rule:evenodd;fill:rgb(58.823532%,61.176473%,100%);fill-opacity:1;stroke-width:0.1;stroke-linecap:butt;stroke-linejoin:miter;stroke:rgb(0%,0%,0%);stroke-opacity:1;stroke-miterlimit:10;" d="M 34.533215 16.25 L 37.670715 16.25 L 37.670715 21.543555 L 34.533215 21.543555 Z M 34.533215 16.25 " transform="matrix(20,0,0,20,138.253663,-323)"/>
<g style="fill:rgb(0%,0%,0%);fill-opacity:1;">
  <use xlink:href="#glyph0-5" x="852.148438" y="58.841905"/>
  <use xlink:href="#glyph0-1" x="859.510905" y="58.841905"/>
</g>
<path style="fill:none;stroke-width:0.1;stroke-linecap:butt;stroke-linejoin:miter;stroke:rgb(0%,0%,0%);stroke-opacity:1;stroke-miterlimit:10;" d="M 31.869543 21.961523 L 33.201379 21.961523 L 33.201379 18.89668 L 34.046301 18.89668 " transform="matrix(20,0,0,20,138.253663,-323)"/>
<path style="fill-rule:evenodd;fill:rgb(0%,0%,0%);fill-opacity:1;stroke-width:0.1;stroke-linecap:butt;stroke-linejoin:miter;stroke:rgb(0%,0%,0%);stroke-opacity:1;stroke-miterlimit:10;" d="M 34.421301 18.89668 L 33.921301 19.14668 L 34.046301 18.89668 L 33.921301 18.64668 Z M 34.421301 18.89668 " transform="matrix(20,0,0,20,138.253663,-323)"/>
<path style="fill:none;stroke-width:0.1;stroke-linecap:butt;stroke-linejoin:miter;stroke:rgb(0%,0%,0%);stroke-opacity:1;stroke-miterlimit:10;" d="M 31.920129 21.961523 L 33.209973 21.961523 L 33.209973 25.894531 L 34.013098 25.894531 " transform="matrix(20,0,0,20,138.253663,-323)"/>
<path style="fill-rule:evenodd;fill:rgb(0%,0%,0%);fill-opacity:1;stroke-width:0.1;stroke-linecap:butt;stroke-linejoin:miter;stroke:rgb(0%,0%,0%);stroke-opacity:1;stroke-miterlimit:10;" d="M 34.388098 25.894531 L 33.888098 26.144531 L 34.013098 25.894531 L 33.888098 25.644531 Z M 34.388098 25.894531 " transform="matrix(20,0,0,20,138.253663,-323)"/>
<path style="fill:none;stroke-width:0.1;stroke-linecap:butt;stroke-linejoin:miter;stroke:rgb(0%,0%,0%);stroke-opacity:1;stroke-miterlimit:10;" d="M 37.670715 18.89668 L 39.893176 18.911328 " transform="matrix(20,0,0,20,138.253663,-323)"/>
<path style="fill-rule:evenodd;fill:rgb(0%,0%,0%);fill-opacity:1;stroke-width:0.1;stroke-linecap:butt;stroke-linejoin:miter;stroke:rgb(0%,0%,0%);stroke-opacity:1;stroke-miterlimit:10;" d="M 40.268176 18.913672 L 39.766614 19.160352 L 39.893176 18.911328 L 39.769934 18.660352 Z M 40.268176 18.913672 " transform="matrix(20,0,0,20,138.253663,-323)"/>
<path style="fill:none;stroke-width:0.1;stroke-linecap:butt;stroke-linejoin:miter;stroke:rgb(0%,0%,0%);stroke-opacity:1;stroke-miterlimit:10;" d="M 37.637512 25.894531 L 39.801575 25.866797 " transform="matrix(20,0,0,20,138.253663,-323)"/>
<path style="fill-rule:evenodd;fill:rgb(0%,0%,0%);fill-opacity:1;stroke-width:0.1;stroke-linecap:butt;stroke-linejoin:miter;stroke:rgb(0%,0%,0%);stroke-opacity:1;stroke-miterlimit:10;" d="M 40.176575 25.862109 L 39.6797 26.118555 L 39.801575 25.866797 L 39.67345 25.618555 Z M 40.176575 25.862109 " transform="matrix(20,0,0,20,138.253663,-323)"/>
<path style="fill-rule:evenodd;fill:rgb(64.313728%,100%,100%);fill-opacity:1;stroke-width:0.1;stroke-linecap:butt;stroke-linejoin:miter;stroke:rgb(0%,0%,0%);stroke-opacity:1;stroke-miterlimit:10;" d="M 23.716614 19.218945 L 26.804114 19.218945 L 26.804114 24.7125 L 23.716614 24.7125 Z M 23.716614 19.218945 " transform="matrix(20,0,0,20,138.253663,-323)"/>
<g style="fill:rgb(0%,0%,0%);fill-opacity:1;">
  <use xlink:href="#glyph0-3" x="623.65625" y="120.216905"/>
  <use xlink:href="#glyph0-2" x="633.231174" y="120.216905"/>
  <use xlink:href="#glyph0-6" x="643.306044" y="120.216905"/>
  <use xlink:href="#glyph0-7" x="647.081" y="120.216905"/>
  <use xlink:href="#glyph0-8" x="655.206" y="120.216905"/>
</g>
<path style="fill:none;stroke-width:0.1;stroke-linecap:butt;stroke-linejoin:miter;stroke:rgb(0%,0%,0%);stroke-opacity:1;stroke-miterlimit:10;" d="M 26.804114 21.965625 L 27.995325 21.962695 " transform="matrix(20,0,0,20,138.253663,-323)"/>
<path style="fill-rule:evenodd;fill:rgb(0%,0%,0%);fill-opacity:1;stroke-width:0.1;stroke-linecap:butt;stroke-linejoin:miter;stroke:rgb(0%,0%,0%);stroke-opacity:1;stroke-miterlimit:10;" d="M 28.370325 21.961914 L 27.870911 22.213086 L 27.995325 21.962695 L 27.869739 21.713086 Z M 28.370325 21.961914 " transform="matrix(20,0,0,20,138.253663,-323)"/>
<path style="fill-rule:evenodd;fill:rgb(100%,60.392159%,58.823532%);fill-opacity:1;stroke-width:0.1;stroke-linecap:butt;stroke-linejoin:miter;stroke:rgb(0%,0%,0%);stroke-opacity:1;stroke-miterlimit:10;" d="M 7.672668 19.431641 L 11.202747 19.431641 L 11.202747 24.506641 L 7.672668 24.506641 Z M 7.672668 19.431641 " transform="matrix(20,0,0,20,138.253663,-323)"/>
<g style="fill:rgb(0%,0%,0%);fill-opacity:1;">
  <use xlink:href="#glyph0-1" x="302.75" y="120.291124"/>
  <use xlink:href="#glyph0-9" x="311.687446" y="120.291124"/>
  <use xlink:href="#glyph0-10" x="319.831163" y="120.291124"/>
  <use xlink:href="#glyph0-9" x="327.406033" y="120.291124"/>
  <use xlink:href="#glyph0-10" x="335.54975" y="120.291124"/>
  <use xlink:href="#glyph0-9" x="343.12462" y="120.291124"/>
</g>
<path style="fill:none;stroke-width:0.1;stroke-linecap:butt;stroke-linejoin:miter;stroke:rgb(0%,0%,0%);stroke-opacity:1;stroke-miterlimit:10;" d="M 5.215832 21.985742 L 7.18595 21.972461 " transform="matrix(20,0,0,20,138.253663,-323)"/>
<path style="fill-rule:evenodd;fill:rgb(0%,0%,0%);fill-opacity:1;stroke-width:0.1;stroke-linecap:butt;stroke-linejoin:miter;stroke:rgb(0%,0%,0%);stroke-opacity:1;stroke-miterlimit:10;" d="M 7.56095 21.969922 L 7.062707 22.223242 L 7.18595 21.972461 L 7.059387 21.723242 Z M 7.56095 21.969922 " transform="matrix(20,0,0,20,138.253663,-323)"/>
<path style="fill-rule:evenodd;fill:rgb(100%,100%,100%);fill-opacity:1;stroke-width:0.1;stroke-linecap:butt;stroke-linejoin:miter;stroke:rgb(0%,0%,0%);stroke-opacity:1;stroke-miterlimit:10;" d="M 19.507629 21.97832 C 19.507629 22.382812 19.1797 22.710938 18.775012 22.710938 C 18.37052 22.710938 18.04259 22.382812 18.04259 21.97832 C 18.04259 21.573828 18.37052 21.245703 18.775012 21.245703 C 19.1797 21.245703 19.507629 21.573828 19.507629 21.97832 " transform="matrix(20,0,0,20,138.253663,-323)"/>
<path style="fill-rule:evenodd;fill:rgb(0%,0%,0%);fill-opacity:1;stroke-width:0.1;stroke-linecap:butt;stroke-linejoin:miter;stroke:rgb(0%,0%,0%);stroke-opacity:1;stroke-miterlimit:10;" d="M 18.921692 21.97832 C 18.921692 22.173633 18.628528 22.173633 18.628528 21.97832 C 18.628528 21.783008 18.921692 21.783008 18.921692 21.97832 " transform="matrix(20,0,0,20,138.253663,-323)"/>
<path style="fill-rule:evenodd;fill:rgb(92.941177%,93.333334%,56.470591%);fill-opacity:1;stroke-width:0.1;stroke-linecap:butt;stroke-linejoin:miter;stroke:rgb(0%,0%,0%);stroke-opacity:1;stroke-miterlimit:10;" d="M 12.815051 19.435156 L 16.432629 19.435156 L 16.432629 24.510156 L 12.815051 24.510156 Z M 12.815051 19.435156 " transform="matrix(20,0,0,20,138.253663,-323)"/>
<g style="fill:rgb(0%,0%,0%);fill-opacity:1;">
  <use xlink:href="#glyph0-11" x="405.574219" y="120.35753"/>
  <use xlink:href="#glyph0-12" x="412.242784" y="120.35753"/>
  <use xlink:href="#glyph0-13" x="415.799099" y="120.35753"/>
  <use xlink:href="#glyph0-14" x="423.924099" y="120.35753"/>
  <use xlink:href="#glyph0-15" x="436.392632" y="120.35753"/>
  <use xlink:href="#glyph0-12" x="444.22385" y="120.35753"/>
  <use xlink:href="#glyph0-16" x="447.780165" y="120.35753"/>
</g>
<path style="fill:none;stroke-width:0.1;stroke-linecap:butt;stroke-linejoin:miter;stroke:rgb(0%,0%,0%);stroke-opacity:1;stroke-miterlimit:10;" d="M 5.215832 21.985742 L 6.770715 21.985742 L 6.770715 18.657422 L 18.775207 18.657422 L 18.775207 20.758984 " transform="matrix(20,0,0,20,138.253663,-323)"/>
<path style="fill-rule:evenodd;fill:rgb(0%,0%,0%);fill-opacity:1;stroke-width:0.1;stroke-linecap:butt;stroke-linejoin:miter;stroke:rgb(0%,0%,0%);stroke-opacity:1;stroke-miterlimit:10;" d="M 18.775207 21.133984 L 18.525207 20.633984 L 18.775207 20.758984 L 19.025207 20.633984 Z M 18.775207 21.133984 " transform="matrix(20,0,0,20,138.253663,-323)"/>
<path style="fill:none;stroke-width:0.1;stroke-linecap:butt;stroke-linejoin:miter;stroke:rgb(0%,0%,0%);stroke-opacity:1;stroke-miterlimit:10;" d="M 11.202747 21.969141 L 12.328332 21.971484 " transform="matrix(20,0,0,20,138.253663,-323)"/>
<path style="fill-rule:evenodd;fill:rgb(0%,0%,0%);fill-opacity:1;stroke-width:0.1;stroke-linecap:butt;stroke-linejoin:miter;stroke:rgb(0%,0%,0%);stroke-opacity:1;stroke-miterlimit:10;" d="M 12.703332 21.972266 L 12.202747 22.221289 L 12.328332 21.971484 L 12.203723 21.721289 Z M 12.703332 21.972266 " transform="matrix(20,0,0,20,138.253663,-323)"/>
<path style="fill:none;stroke-width:0.1;stroke-linecap:butt;stroke-linejoin:miter;stroke:rgb(0%,0%,0%);stroke-opacity:1;stroke-miterlimit:10;" d="M 16.432629 21.972656 L 17.555676 21.976562 " transform="matrix(20,0,0,20,138.253663,-323)"/>
<path style="fill-rule:evenodd;fill:rgb(0%,0%,0%);fill-opacity:1;stroke-width:0.1;stroke-linecap:butt;stroke-linejoin:miter;stroke:rgb(0%,0%,0%);stroke-opacity:1;stroke-miterlimit:10;" d="M 17.930676 21.97793 L 17.429895 22.226172 L 17.555676 21.976562 L 17.431653 21.726172 Z M 17.930676 21.97793 " transform="matrix(20,0,0,20,138.253663,-323)"/>
<path style="fill-rule:evenodd;fill:rgb(100%,100%,100%);fill-opacity:1;stroke-width:0.1;stroke-linecap:butt;stroke-linejoin:miter;stroke:rgb(0%,0%,0%);stroke-opacity:1;stroke-miterlimit:10;" d="M 22.058606 21.977734 C 22.058606 22.350391 21.77384 22.652344 21.422473 22.652344 C 21.071106 22.652344 20.78634 22.350391 20.78634 21.977734 C 20.78634 21.605078 21.071106 21.30293 21.422473 21.30293 C 21.77384 21.30293 22.058606 21.605078 22.058606 21.977734 " transform="matrix(20,0,0,20,138.253663,-323)"/>
<path style="fill:none;stroke-width:0.1;stroke-linecap:butt;stroke-linejoin:miter;stroke:rgb(0%,0%,0%);stroke-opacity:1;stroke-miterlimit:10;" d="M 20.972668 21.500586 L 21.872278 22.454883 " transform="matrix(20,0,0,20,138.253663,-323)"/>
<path style="fill:none;stroke-width:0.1;stroke-linecap:butt;stroke-linejoin:miter;stroke:rgb(0%,0%,0%);stroke-opacity:1;stroke-miterlimit:10;" d="M 20.972668 22.454883 L 21.872278 21.500586 " transform="matrix(20,0,0,20,138.253663,-323)"/>
<path style="fill:none;stroke-width:0.1;stroke-linecap:butt;stroke-linejoin:miter;stroke:rgb(0%,0%,0%);stroke-opacity:1;stroke-miterlimit:10;" d="M 6.080676 21.975195 L 6.764075 21.975195 L 6.764075 17.66543 L 21.422473 17.66543 L 21.422473 20.816211 " transform="matrix(20,0,0,20,138.253663,-323)"/>
<path style="fill-rule:evenodd;fill:rgb(0%,0%,0%);fill-opacity:1;stroke-width:0.1;stroke-linecap:butt;stroke-linejoin:miter;stroke:rgb(0%,0%,0%);stroke-opacity:1;stroke-miterlimit:10;" d="M 21.422473 21.191211 L 21.172473 20.691211 L 21.422473 20.816211 L 21.672473 20.691211 Z M 21.422473 21.191211 " transform="matrix(20,0,0,20,138.253663,-323)"/>
<path style="fill:none;stroke-width:0.1;stroke-linecap:butt;stroke-linejoin:miter;stroke:rgb(0%,0%,0%);stroke-opacity:1;stroke-miterlimit:10;" d="M 19.507629 21.97832 L 20.299622 21.97793 " transform="matrix(20,0,0,20,138.253663,-323)"/>
<path style="fill-rule:evenodd;fill:rgb(0%,0%,0%);fill-opacity:1;stroke-width:0.1;stroke-linecap:butt;stroke-linejoin:miter;stroke:rgb(0%,0%,0%);stroke-opacity:1;stroke-miterlimit:10;" d="M 20.674622 21.977734 L 20.174622 22.22793 L 20.299622 21.97793 L 20.174426 21.72793 Z M 20.674622 21.977734 " transform="matrix(20,0,0,20,138.253663,-323)"/>
<path style="fill:none;stroke-width:0.1;stroke-linecap:butt;stroke-linejoin:miter;stroke:rgb(0%,0%,0%);stroke-opacity:1;stroke-miterlimit:10;" d="M 22.058606 21.977734 L 23.2297 21.969141 " transform="matrix(20,0,0,20,138.253663,-323)"/>
<path style="fill-rule:evenodd;fill:rgb(0%,0%,0%);fill-opacity:1;stroke-width:0.1;stroke-linecap:butt;stroke-linejoin:miter;stroke:rgb(0%,0%,0%);stroke-opacity:1;stroke-miterlimit:10;" d="M 23.6047 21.966406 L 23.106653 22.220117 L 23.2297 21.969141 L 23.102942 21.720117 Z M 23.6047 21.966406 " transform="matrix(20,0,0,20,138.253663,-323)"/>
</g>
</svg>
