<?xml version="1.0" encoding="UTF-8" standalone="no"?>
<!DOCTYPE svg PUBLIC "-//W3C//DTD SVG 1.1//EN"
 "http://www.w3.org/Graphics/SVG/1.1/DTD/svg11.dtd">
<!-- Generated by graphviz version 2.40.1 (20161225.0304)
 -->
<!-- Title: %3 Pages: 1 -->
<svg width="598pt" height="864pt"
 viewBox="0.00 0.00 598.15 864.00" xmlns="http://www.w3.org/2000/svg" xmlns:xlink="http://www.w3.org/1999/xlink">
<g id="graph0" class="graph" transform="scale(.8205 .8205) rotate(0) translate(4 1049)">
<title>%3</title>
<polygon fill="#ffffff" stroke="transparent" points="-4,4 -4,-1049 725,-1049 725,4 -4,4"/>
<!-- 140459339111672 -->
<g id="node1" class="node">
<title>140459339111672</title>
<polygon fill="#caff70" stroke="#000000" points="601.5,-21 497.5,-21 497.5,0 601.5,0 601.5,-21"/>
<text text-anchor="middle" x="549.5" y="-7.4" font-family="Times,serif" font-size="12.00" fill="#000000">AddmmBackward</text>
</g>
<!-- 140459339111280 -->
<g id="node2" class="node">
<title>140459339111280</title>
<polygon fill="#add8e6" stroke="#000000" points="484.5,-92 430.5,-92 430.5,-57 484.5,-57 484.5,-92"/>
<text text-anchor="middle" x="457.5" y="-64.4" font-family="Times,serif" font-size="12.00" fill="#000000"> (4)</text>
</g>
<!-- 140459339111280&#45;&gt;140459339111672 -->
<g id="edge1" class="edge">
<title>140459339111280&#45;&gt;140459339111672</title>
<path fill="none" stroke="#000000" d="M483.1271,-56.6724C496.5188,-47.3565 512.7974,-36.0322 525.8816,-26.9302"/>
<polygon fill="#000000" stroke="#000000" points="528.1445,-29.6197 534.3548,-21.0358 524.147,-23.8733 528.1445,-29.6197"/>
</g>
<!-- 140459339111224 -->
<g id="node3" class="node">
<title>140459339111224</title>
<polygon fill="#d3d3d3" stroke="#000000" points="596.5,-85 502.5,-85 502.5,-64 596.5,-64 596.5,-85"/>
<text text-anchor="middle" x="549.5" y="-71.4" font-family="Times,serif" font-size="12.00" fill="#000000">ReluBackward0</text>
</g>
<!-- 140459339111224&#45;&gt;140459339111672 -->
<g id="edge2" class="edge">
<title>140459339111224&#45;&gt;140459339111672</title>
<path fill="none" stroke="#000000" d="M549.5,-63.9317C549.5,-55.0913 549.5,-42.2122 549.5,-31.3135"/>
<polygon fill="#000000" stroke="#000000" points="553.0001,-31.2979 549.5,-21.2979 546.0001,-31.2979 553.0001,-31.2979"/>
</g>
<!-- 140459339111728 -->
<g id="node4" class="node">
<title>140459339111728</title>
<polygon fill="#d3d3d3" stroke="#000000" points="601.5,-156 497.5,-156 497.5,-135 601.5,-135 601.5,-156"/>
<text text-anchor="middle" x="549.5" y="-142.4" font-family="Times,serif" font-size="12.00" fill="#000000">AddmmBackward</text>
</g>
<!-- 140459339111728&#45;&gt;140459339111224 -->
<g id="edge3" class="edge">
<title>140459339111728&#45;&gt;140459339111224</title>
<path fill="none" stroke="#000000" d="M549.5,-134.7166C549.5,-124.3953 549.5,-108.5401 549.5,-95.6896"/>
<polygon fill="#000000" stroke="#000000" points="553.0001,-95.3848 549.5,-85.3849 546.0001,-95.3849 553.0001,-95.3848"/>
</g>
<!-- 140459339111560 -->
<g id="node5" class="node">
<title>140459339111560</title>
<polygon fill="#add8e6" stroke="#000000" points="485.5,-234 431.5,-234 431.5,-199 485.5,-199 485.5,-234"/>
<text text-anchor="middle" x="458.5" y="-206.4" font-family="Times,serif" font-size="12.00" fill="#000000"> (512)</text>
</g>
<!-- 140459339111560&#45;&gt;140459339111728 -->
<g id="edge4" class="edge">
<title>140459339111560&#45;&gt;140459339111728</title>
<path fill="none" stroke="#000000" d="M480.9944,-198.9494C495.2906,-187.7952 513.6989,-173.4327 527.8325,-162.4054"/>
<polygon fill="#000000" stroke="#000000" points="530.2741,-164.9397 536.0053,-156.0288 525.9681,-159.4208 530.2741,-164.9397"/>
</g>
<!-- 140459339111504 -->
<g id="node6" class="node">
<title>140459339111504</title>
<polygon fill="#d3d3d3" stroke="#000000" points="595.5,-227 503.5,-227 503.5,-206 595.5,-206 595.5,-227"/>
<text text-anchor="middle" x="549.5" y="-213.4" font-family="Times,serif" font-size="12.00" fill="#000000">ViewBackward</text>
</g>
<!-- 140459339111504&#45;&gt;140459339111728 -->
<g id="edge5" class="edge">
<title>140459339111504&#45;&gt;140459339111728</title>
<path fill="none" stroke="#000000" d="M549.5,-205.7166C549.5,-195.3953 549.5,-179.5401 549.5,-166.6896"/>
<polygon fill="#000000" stroke="#000000" points="553.0001,-166.3848 549.5,-156.3849 546.0001,-166.3849 553.0001,-166.3848"/>
</g>
<!-- 140459339112064 -->
<g id="node7" class="node">
<title>140459339112064</title>
<polygon fill="#d3d3d3" stroke="#000000" points="628,-298 447,-298 447,-277 628,-277 628,-298"/>
<text text-anchor="middle" x="537.5" y="-284.4" font-family="Times,serif" font-size="12.00" fill="#000000">MaxPool2DWithIndicesBackward</text>
</g>
<!-- 140459339112064&#45;&gt;140459339111504 -->
<g id="edge6" class="edge">
<title>140459339112064&#45;&gt;140459339111504</title>
<path fill="none" stroke="#000000" d="M539.3225,-276.7166C541.0846,-266.291 543.801,-250.2192 545.9843,-237.3011"/>
<polygon fill="#000000" stroke="#000000" points="549.4448,-237.8283 547.6603,-227.3849 542.5427,-236.6617 549.4448,-237.8283"/>
</g>
<!-- 140459339112120 -->
<g id="node8" class="node">
<title>140459339112120</title>
<polygon fill="#d3d3d3" stroke="#000000" points="584.5,-362 490.5,-362 490.5,-341 584.5,-341 584.5,-362"/>
<text text-anchor="middle" x="537.5" y="-348.4" font-family="Times,serif" font-size="12.00" fill="#000000">ReluBackward0</text>
</g>
<!-- 140459339112120&#45;&gt;140459339112064 -->
<g id="edge7" class="edge">
<title>140459339112120&#45;&gt;140459339112064</title>
<path fill="none" stroke="#000000" d="M537.5,-340.9317C537.5,-332.0913 537.5,-319.2122 537.5,-308.3135"/>
<polygon fill="#000000" stroke="#000000" points="541.0001,-308.2979 537.5,-298.2979 534.0001,-308.2979 541.0001,-308.2979"/>
</g>
<!-- 140459339112232 -->
<g id="node9" class="node">
<title>140459339112232</title>
<polygon fill="#d3d3d3" stroke="#000000" points="616,-419 459,-419 459,-398 616,-398 616,-419"/>
<text text-anchor="middle" x="537.5" y="-405.4" font-family="Times,serif" font-size="12.00" fill="#000000">CudnnConvolutionBackward</text>
</g>
<!-- 140459339112232&#45;&gt;140459339112120 -->
<g id="edge8" class="edge">
<title>140459339112232&#45;&gt;140459339112120</title>
<path fill="none" stroke="#000000" d="M537.5,-397.7787C537.5,-390.6134 537.5,-380.9517 537.5,-372.3097"/>
<polygon fill="#000000" stroke="#000000" points="541.0001,-372.1732 537.5,-362.1732 534.0001,-372.1732 541.0001,-372.1732"/>
</g>
<!-- 140459339112344 -->
<g id="node10" class="node">
<title>140459339112344</title>
<polygon fill="#d3d3d3" stroke="#000000" points="479,-483 298,-483 298,-462 479,-462 479,-483"/>
<text text-anchor="middle" x="388.5" y="-469.4" font-family="Times,serif" font-size="12.00" fill="#000000">MaxPool2DWithIndicesBackward</text>
</g>
<!-- 140459339112344&#45;&gt;140459339112232 -->
<g id="edge9" class="edge">
<title>140459339112344&#45;&gt;140459339112232</title>
<path fill="none" stroke="#000000" d="M413.1043,-461.9317C437.7999,-451.3242 476.033,-434.9019 503.5949,-423.0633"/>
<polygon fill="#000000" stroke="#000000" points="505.0522,-426.2466 512.8591,-419.084 502.2895,-419.8148 505.0522,-426.2466"/>
</g>
<!-- 140459339272264 -->
<g id="node11" class="node">
<title>140459339272264</title>
<polygon fill="#d3d3d3" stroke="#000000" points="435.5,-547 341.5,-547 341.5,-526 435.5,-526 435.5,-547"/>
<text text-anchor="middle" x="388.5" y="-533.4" font-family="Times,serif" font-size="12.00" fill="#000000">ReluBackward0</text>
</g>
<!-- 140459339272264&#45;&gt;140459339112344 -->
<g id="edge10" class="edge">
<title>140459339272264&#45;&gt;140459339112344</title>
<path fill="none" stroke="#000000" d="M388.5,-525.9317C388.5,-517.0913 388.5,-504.2122 388.5,-493.3135"/>
<polygon fill="#000000" stroke="#000000" points="392.0001,-493.2979 388.5,-483.2979 385.0001,-493.2979 392.0001,-493.2979"/>
</g>
<!-- 140459339272376 -->
<g id="node12" class="node">
<title>140459339272376</title>
<polygon fill="#d3d3d3" stroke="#000000" points="467,-604 310,-604 310,-583 467,-583 467,-604"/>
<text text-anchor="middle" x="388.5" y="-590.4" font-family="Times,serif" font-size="12.00" fill="#000000">CudnnConvolutionBackward</text>
</g>
<!-- 140459339272376&#45;&gt;140459339272264 -->
<g id="edge11" class="edge">
<title>140459339272376&#45;&gt;140459339272264</title>
<path fill="none" stroke="#000000" d="M388.5,-582.7787C388.5,-575.6134 388.5,-565.9517 388.5,-557.3097"/>
<polygon fill="#000000" stroke="#000000" points="392.0001,-557.1732 388.5,-547.1732 385.0001,-557.1732 392.0001,-557.1732"/>
</g>
<!-- 140459339272488 -->
<g id="node13" class="node">
<title>140459339272488</title>
<polygon fill="#d3d3d3" stroke="#000000" points="330,-668 149,-668 149,-647 330,-647 330,-668"/>
<text text-anchor="middle" x="239.5" y="-654.4" font-family="Times,serif" font-size="12.00" fill="#000000">MaxPool2DWithIndicesBackward</text>
</g>
<!-- 140459339272488&#45;&gt;140459339272376 -->
<g id="edge12" class="edge">
<title>140459339272488&#45;&gt;140459339272376</title>
<path fill="none" stroke="#000000" d="M264.1043,-646.9317C288.7999,-636.3242 327.033,-619.9019 354.5949,-608.0633"/>
<polygon fill="#000000" stroke="#000000" points="356.0522,-611.2466 363.8591,-604.084 353.2895,-604.8148 356.0522,-611.2466"/>
</g>
<!-- 140459339272712 -->
<g id="node14" class="node">
<title>140459339272712</title>
<polygon fill="#d3d3d3" stroke="#000000" points="286.5,-732 192.5,-732 192.5,-711 286.5,-711 286.5,-732"/>
<text text-anchor="middle" x="239.5" y="-718.4" font-family="Times,serif" font-size="12.00" fill="#000000">ReluBackward0</text>
</g>
<!-- 140459339272712&#45;&gt;140459339272488 -->
<g id="edge13" class="edge">
<title>140459339272712&#45;&gt;140459339272488</title>
<path fill="none" stroke="#000000" d="M239.5,-710.9317C239.5,-702.0913 239.5,-689.2122 239.5,-678.3135"/>
<polygon fill="#000000" stroke="#000000" points="243.0001,-678.2979 239.5,-668.2979 236.0001,-678.2979 243.0001,-678.2979"/>
</g>
<!-- 140459339272824 -->
<g id="node15" class="node">
<title>140459339272824</title>
<polygon fill="#d3d3d3" stroke="#000000" points="318,-789 161,-789 161,-768 318,-768 318,-789"/>
<text text-anchor="middle" x="239.5" y="-775.4" font-family="Times,serif" font-size="12.00" fill="#000000">CudnnConvolutionBackward</text>
</g>
<!-- 140459339272824&#45;&gt;140459339272712 -->
<g id="edge14" class="edge">
<title>140459339272824&#45;&gt;140459339272712</title>
<path fill="none" stroke="#000000" d="M239.5,-767.7787C239.5,-760.6134 239.5,-750.9517 239.5,-742.3097"/>
<polygon fill="#000000" stroke="#000000" points="243.0001,-742.1732 239.5,-732.1732 236.0001,-742.1732 243.0001,-742.1732"/>
</g>
<!-- 140459339272936 -->
<g id="node16" class="node">
<title>140459339272936</title>
<polygon fill="#d3d3d3" stroke="#000000" points="181,-853 0,-853 0,-832 181,-832 181,-853"/>
<text text-anchor="middle" x="90.5" y="-839.4" font-family="Times,serif" font-size="12.00" fill="#000000">MaxPool2DWithIndicesBackward</text>
</g>
<!-- 140459339272936&#45;&gt;140459339272824 -->
<g id="edge15" class="edge">
<title>140459339272936&#45;&gt;140459339272824</title>
<path fill="none" stroke="#000000" d="M115.1043,-831.9317C139.7999,-821.3242 178.033,-804.9019 205.5949,-793.0633"/>
<polygon fill="#000000" stroke="#000000" points="207.0522,-796.2466 214.8591,-789.084 204.2895,-789.8148 207.0522,-796.2466"/>
</g>
<!-- 140459339273160 -->
<g id="node17" class="node">
<title>140459339273160</title>
<polygon fill="#d3d3d3" stroke="#000000" points="137.5,-917 43.5,-917 43.5,-896 137.5,-896 137.5,-917"/>
<text text-anchor="middle" x="90.5" y="-903.4" font-family="Times,serif" font-size="12.00" fill="#000000">ReluBackward0</text>
</g>
<!-- 140459339273160&#45;&gt;140459339272936 -->
<g id="edge16" class="edge">
<title>140459339273160&#45;&gt;140459339272936</title>
<path fill="none" stroke="#000000" d="M90.5,-895.9317C90.5,-887.0913 90.5,-874.2122 90.5,-863.3135"/>
<polygon fill="#000000" stroke="#000000" points="94.0001,-863.2979 90.5,-853.2979 87.0001,-863.2979 94.0001,-863.2979"/>
</g>
<!-- 140459339273272 -->
<g id="node18" class="node">
<title>140459339273272</title>
<polygon fill="#d3d3d3" stroke="#000000" points="169,-974 12,-974 12,-953 169,-953 169,-974"/>
<text text-anchor="middle" x="90.5" y="-960.4" font-family="Times,serif" font-size="12.00" fill="#000000">CudnnConvolutionBackward</text>
</g>
<!-- 140459339273272&#45;&gt;140459339273160 -->
<g id="edge17" class="edge">
<title>140459339273272&#45;&gt;140459339273160</title>
<path fill="none" stroke="#000000" d="M90.5,-952.7787C90.5,-945.6134 90.5,-935.9517 90.5,-927.3097"/>
<polygon fill="#000000" stroke="#000000" points="94.0001,-927.1732 90.5,-917.1732 87.0001,-927.1732 94.0001,-927.1732"/>
</g>
<!-- 140459339273384 -->
<g id="node19" class="node">
<title>140459339273384</title>
<polygon fill="#add8e6" stroke="#000000" points="87,-1045 12,-1045 12,-1010 87,-1010 87,-1045"/>
<text text-anchor="middle" x="49.5" y="-1017.4" font-family="Times,serif" font-size="12.00" fill="#000000"> (32, 4, 3, 3)</text>
</g>
<!-- 140459339273384&#45;&gt;140459339273272 -->
<g id="edge18" class="edge">
<title>140459339273384&#45;&gt;140459339273272</title>
<path fill="none" stroke="#000000" d="M60.9208,-1009.6724C66.2802,-1001.3066 72.6771,-991.3212 78.1488,-982.7799"/>
<polygon fill="#000000" stroke="#000000" points="81.1831,-984.5318 83.6303,-974.2234 75.2889,-980.7558 81.1831,-984.5318"/>
</g>
<!-- 140459339273440 -->
<g id="node20" class="node">
<title>140459339273440</title>
<polygon fill="#add8e6" stroke="#000000" points="159.5,-1045 105.5,-1045 105.5,-1010 159.5,-1010 159.5,-1045"/>
<text text-anchor="middle" x="132.5" y="-1017.4" font-family="Times,serif" font-size="12.00" fill="#000000"> (32)</text>
</g>
<!-- 140459339273440&#45;&gt;140459339273272 -->
<g id="edge19" class="edge">
<title>140459339273440&#45;&gt;140459339273272</title>
<path fill="none" stroke="#000000" d="M120.8007,-1009.6724C115.3105,-1001.3066 108.7576,-991.3212 103.1524,-982.7799"/>
<polygon fill="#000000" stroke="#000000" points="105.95,-980.6636 97.5373,-974.2234 100.0977,-984.5042 105.95,-980.6636"/>
</g>
<!-- 140459339272992 -->
<g id="node21" class="node">
<title>140459339272992</title>
<polygon fill="#add8e6" stroke="#000000" points="280,-860 199,-860 199,-825 280,-825 280,-860"/>
<text text-anchor="middle" x="239.5" y="-832.4" font-family="Times,serif" font-size="12.00" fill="#000000"> (32, 32, 3, 3)</text>
</g>
<!-- 140459339272992&#45;&gt;140459339272824 -->
<g id="edge20" class="edge">
<title>140459339272992&#45;&gt;140459339272824</title>
<path fill="none" stroke="#000000" d="M239.5,-824.6724C239.5,-816.8405 239.5,-807.5893 239.5,-799.4323"/>
<polygon fill="#000000" stroke="#000000" points="243.0001,-799.2234 239.5,-789.2234 236.0001,-799.2235 243.0001,-799.2234"/>
</g>
<!-- 140459339273048 -->
<g id="node22" class="node">
<title>140459339273048</title>
<polygon fill="#add8e6" stroke="#000000" points="352.5,-860 298.5,-860 298.5,-825 352.5,-825 352.5,-860"/>
<text text-anchor="middle" x="325.5" y="-832.4" font-family="Times,serif" font-size="12.00" fill="#000000"> (32)</text>
</g>
<!-- 140459339273048&#45;&gt;140459339272824 -->
<g id="edge21" class="edge">
<title>140459339273048&#45;&gt;140459339272824</title>
<path fill="none" stroke="#000000" d="M301.5442,-824.6724C289.1462,-815.446 274.1013,-804.2498 261.9317,-795.1934"/>
<polygon fill="#000000" stroke="#000000" points="263.7694,-792.1981 253.6575,-789.0358 259.5903,-797.8138 263.7694,-792.1981"/>
</g>
<!-- 140459339272544 -->
<g id="node23" class="node">
<title>140459339272544</title>
<polygon fill="#add8e6" stroke="#000000" points="429,-675 348,-675 348,-640 429,-640 429,-675"/>
<text text-anchor="middle" x="388.5" y="-647.4" font-family="Times,serif" font-size="12.00" fill="#000000"> (64, 32, 3, 3)</text>
</g>
<!-- 140459339272544&#45;&gt;140459339272376 -->
<g id="edge22" class="edge">
<title>140459339272544&#45;&gt;140459339272376</title>
<path fill="none" stroke="#000000" d="M388.5,-639.6724C388.5,-631.8405 388.5,-622.5893 388.5,-614.4323"/>
<polygon fill="#000000" stroke="#000000" points="392.0001,-614.2234 388.5,-604.2234 385.0001,-614.2235 392.0001,-614.2234"/>
</g>
<!-- 140459339272600 -->
<g id="node24" class="node">
<title>140459339272600</title>
<polygon fill="#add8e6" stroke="#000000" points="501.5,-675 447.5,-675 447.5,-640 501.5,-640 501.5,-675"/>
<text text-anchor="middle" x="474.5" y="-647.4" font-family="Times,serif" font-size="12.00" fill="#000000"> (64)</text>
</g>
<!-- 140459339272600&#45;&gt;140459339272376 -->
<g id="edge23" class="edge">
<title>140459339272600&#45;&gt;140459339272376</title>
<path fill="none" stroke="#000000" d="M450.5442,-639.6724C438.1462,-630.446 423.1013,-619.2498 410.9317,-610.1934"/>
<polygon fill="#000000" stroke="#000000" points="412.7694,-607.1981 402.6575,-604.0358 408.5903,-612.8138 412.7694,-607.1981"/>
</g>
<!-- 140459339112400 -->
<g id="node25" class="node">
<title>140459339112400</title>
<polygon fill="#add8e6" stroke="#000000" points="578,-490 497,-490 497,-455 578,-455 578,-490"/>
<text text-anchor="middle" x="537.5" y="-462.4" font-family="Times,serif" font-size="12.00" fill="#000000"> (64, 64, 3, 3)</text>
</g>
<!-- 140459339112400&#45;&gt;140459339112232 -->
<g id="edge24" class="edge">
<title>140459339112400&#45;&gt;140459339112232</title>
<path fill="none" stroke="#000000" d="M537.5,-454.6724C537.5,-446.8405 537.5,-437.5893 537.5,-429.4323"/>
<polygon fill="#000000" stroke="#000000" points="541.0001,-429.2234 537.5,-419.2234 534.0001,-429.2235 541.0001,-429.2234"/>
</g>
<!-- 140459339111448 -->
<g id="node26" class="node">
<title>140459339111448</title>
<polygon fill="#add8e6" stroke="#000000" points="650.5,-490 596.5,-490 596.5,-455 650.5,-455 650.5,-490"/>
<text text-anchor="middle" x="623.5" y="-462.4" font-family="Times,serif" font-size="12.00" fill="#000000"> (64)</text>
</g>
<!-- 140459339111448&#45;&gt;140459339112232 -->
<g id="edge25" class="edge">
<title>140459339111448&#45;&gt;140459339112232</title>
<path fill="none" stroke="#000000" d="M599.5442,-454.6724C587.1462,-445.446 572.1013,-434.2498 559.9317,-425.1934"/>
<polygon fill="#000000" stroke="#000000" points="561.7694,-422.1981 551.6575,-419.0358 557.5903,-427.8138 561.7694,-422.1981"/>
</g>
<!-- 140459339111336 -->
<g id="node27" class="node">
<title>140459339111336</title>
<polygon fill="#d3d3d3" stroke="#000000" points="709,-227 636,-227 636,-206 709,-206 709,-227"/>
<text text-anchor="middle" x="672.5" y="-213.4" font-family="Times,serif" font-size="12.00" fill="#000000">TBackward</text>
</g>
<!-- 140459339111336&#45;&gt;140459339111728 -->
<g id="edge26" class="edge">
<title>140459339111336&#45;&gt;140459339111728</title>
<path fill="none" stroke="#000000" d="M654.0857,-205.8706C633.615,-194.0542 600.3456,-174.8499 576.8345,-161.2784"/>
<polygon fill="#000000" stroke="#000000" points="578.4507,-158.1701 568.0402,-156.2021 574.9512,-164.2326 578.4507,-158.1701"/>
</g>
<!-- 140459339112008 -->
<g id="node28" class="node">
<title>140459339112008</title>
<polygon fill="#add8e6" stroke="#000000" points="721,-305 646,-305 646,-270 721,-270 721,-305"/>
<text text-anchor="middle" x="683.5" y="-277.4" font-family="Times,serif" font-size="12.00" fill="#000000"> (512, 2304)</text>
</g>
<!-- 140459339112008&#45;&gt;140459339111336 -->
<g id="edge27" class="edge">
<title>140459339112008&#45;&gt;140459339111336</title>
<path fill="none" stroke="#000000" d="M680.7809,-269.9494C679.2321,-259.9527 677.2841,-247.3791 675.6666,-236.9389"/>
<polygon fill="#000000" stroke="#000000" points="679.1211,-236.375 674.1312,-227.0288 672.2036,-237.4468 679.1211,-236.375"/>
</g>
<!-- 140459339111168 -->
<g id="node29" class="node">
<title>140459339111168</title>
<polygon fill="#d3d3d3" stroke="#000000" points="688,-85 615,-85 615,-64 688,-64 688,-85"/>
<text text-anchor="middle" x="651.5" y="-71.4" font-family="Times,serif" font-size="12.00" fill="#000000">TBackward</text>
</g>
<!-- 140459339111168&#45;&gt;140459339111672 -->
<g id="edge28" class="edge">
<title>140459339111168&#45;&gt;140459339111672</title>
<path fill="none" stroke="#000000" d="M634.6568,-63.9317C618.4155,-53.7411 593.621,-38.1838 574.9676,-26.4797"/>
<polygon fill="#000000" stroke="#000000" points="576.6991,-23.4342 566.3682,-21.084 572.9787,-29.3637 576.6991,-23.4342"/>
</g>
<!-- 140459339111784 -->
<g id="node30" class="node">
<title>140459339111784</title>
<polygon fill="#add8e6" stroke="#000000" points="680,-163 623,-163 623,-128 680,-128 680,-163"/>
<text text-anchor="middle" x="651.5" y="-135.4" font-family="Times,serif" font-size="12.00" fill="#000000"> (4, 512)</text>
</g>
<!-- 140459339111784&#45;&gt;140459339111168 -->
<g id="edge29" class="edge">
<title>140459339111784&#45;&gt;140459339111168</title>
<path fill="none" stroke="#000000" d="M651.5,-127.9494C651.5,-118.058 651.5,-105.6435 651.5,-95.2693"/>
<polygon fill="#000000" stroke="#000000" points="655.0001,-95.0288 651.5,-85.0288 648.0001,-95.0289 655.0001,-95.0288"/>
</g>
</g>
</svg>
