<?xml version="1.0" encoding="UTF-8" standalone="no"?>
<!DOCTYPE svg PUBLIC "-//W3C//DTD SVG 1.1//EN"
 "http://www.w3.org/Graphics/SVG/1.1/DTD/svg11.dtd">
<!-- Generated by graphviz version 2.40.1 (20161225.0304)
 -->
<!-- Title: %3 Pages: 1 -->
<svg width="611pt" height="864pt"
 viewBox="0.00 0.00 610.87 864.00" xmlns="http://www.w3.org/2000/svg" xmlns:xlink="http://www.w3.org/1999/xlink">
<g id="graph0" class="graph" transform="scale(.7316 .7316) rotate(0) translate(4 1177)">
<title>%3</title>
<polygon fill="#ffffff" stroke="transparent" points="-4,4 -4,-1177 831,-1177 831,4 -4,4"/>
<!-- 140100994149904 -->
<g id="node1" class="node">
<title>140100994149904</title>
<polygon fill="#caff70" stroke="#000000" points="739.5,-21 635.5,-21 635.5,0 739.5,0 739.5,-21"/>
<text text-anchor="middle" x="687.5" y="-7.4" font-family="Times,serif" font-size="12.00" fill="#000000">AddmmBackward</text>
</g>
<!-- 140100994149960 -->
<g id="node2" class="node">
<title>140100994149960</title>
<polygon fill="#add8e6" stroke="#000000" points="622.5,-92 568.5,-92 568.5,-57 622.5,-57 622.5,-92"/>
<text text-anchor="middle" x="595.5" y="-64.4" font-family="Times,serif" font-size="12.00" fill="#000000"> (4)</text>
</g>
<!-- 140100994149960&#45;&gt;140100994149904 -->
<g id="edge1" class="edge">
<title>140100994149960&#45;&gt;140100994149904</title>
<path fill="none" stroke="#000000" d="M621.1271,-56.6724C634.5188,-47.3565 650.7974,-36.0322 663.8816,-26.9302"/>
<polygon fill="#000000" stroke="#000000" points="666.1445,-29.6197 672.3548,-21.0358 662.147,-23.8733 666.1445,-29.6197"/>
</g>
<!-- 140099035267424 -->
<g id="node3" class="node">
<title>140099035267424</title>
<polygon fill="#d3d3d3" stroke="#000000" points="734.5,-85 640.5,-85 640.5,-64 734.5,-64 734.5,-85"/>
<text text-anchor="middle" x="687.5" y="-71.4" font-family="Times,serif" font-size="12.00" fill="#000000">ReluBackward0</text>
</g>
<!-- 140099035267424&#45;&gt;140100994149904 -->
<g id="edge2" class="edge">
<title>140099035267424&#45;&gt;140100994149904</title>
<path fill="none" stroke="#000000" d="M687.5,-63.9317C687.5,-55.0913 687.5,-42.2122 687.5,-31.3135"/>
<polygon fill="#000000" stroke="#000000" points="691.0001,-31.2979 687.5,-21.2979 684.0001,-31.2979 691.0001,-31.2979"/>
</g>
<!-- 140099035267816 -->
<g id="node4" class="node">
<title>140099035267816</title>
<polygon fill="#d3d3d3" stroke="#000000" points="739.5,-156 635.5,-156 635.5,-135 739.5,-135 739.5,-156"/>
<text text-anchor="middle" x="687.5" y="-142.4" font-family="Times,serif" font-size="12.00" fill="#000000">AddmmBackward</text>
</g>
<!-- 140099035267816&#45;&gt;140099035267424 -->
<g id="edge3" class="edge">
<title>140099035267816&#45;&gt;140099035267424</title>
<path fill="none" stroke="#000000" d="M687.5,-134.7166C687.5,-124.3953 687.5,-108.5401 687.5,-95.6896"/>
<polygon fill="#000000" stroke="#000000" points="691.0001,-95.3848 687.5,-85.3849 684.0001,-95.3849 691.0001,-95.3848"/>
</g>
<!-- 140099035267592 -->
<g id="node5" class="node">
<title>140099035267592</title>
<polygon fill="#add8e6" stroke="#000000" points="623.5,-234 569.5,-234 569.5,-199 623.5,-199 623.5,-234"/>
<text text-anchor="middle" x="596.5" y="-206.4" font-family="Times,serif" font-size="12.00" fill="#000000"> (512)</text>
</g>
<!-- 140099035267592&#45;&gt;140099035267816 -->
<g id="edge4" class="edge">
<title>140099035267592&#45;&gt;140099035267816</title>
<path fill="none" stroke="#000000" d="M618.9944,-198.9494C633.2906,-187.7952 651.6989,-173.4327 665.8325,-162.4054"/>
<polygon fill="#000000" stroke="#000000" points="668.2741,-164.9397 674.0053,-156.0288 663.9681,-159.4208 668.2741,-164.9397"/>
</g>
<!-- 140100482954632 -->
<g id="node6" class="node">
<title>140100482954632</title>
<polygon fill="#d3d3d3" stroke="#000000" points="733.5,-227 641.5,-227 641.5,-206 733.5,-206 733.5,-227"/>
<text text-anchor="middle" x="687.5" y="-213.4" font-family="Times,serif" font-size="12.00" fill="#000000">ViewBackward</text>
</g>
<!-- 140100482954632&#45;&gt;140099035267816 -->
<g id="edge5" class="edge">
<title>140100482954632&#45;&gt;140099035267816</title>
<path fill="none" stroke="#000000" d="M687.5,-205.7166C687.5,-195.3953 687.5,-179.5401 687.5,-166.6896"/>
<polygon fill="#000000" stroke="#000000" points="691.0001,-166.3848 687.5,-156.3849 684.0001,-166.3849 691.0001,-166.3848"/>
</g>
<!-- 140100482956200 -->
<g id="node7" class="node">
<title>140100482956200</title>
<polygon fill="#d3d3d3" stroke="#000000" points="733.5,-298 639.5,-298 639.5,-277 733.5,-277 733.5,-298"/>
<text text-anchor="middle" x="686.5" y="-284.4" font-family="Times,serif" font-size="12.00" fill="#000000">ReluBackward0</text>
</g>
<!-- 140100482956200&#45;&gt;140100482954632 -->
<g id="edge6" class="edge">
<title>140100482956200&#45;&gt;140100482954632</title>
<path fill="none" stroke="#000000" d="M686.6519,-276.7166C686.7972,-266.3953 687.0206,-250.5401 687.2016,-237.6896"/>
<polygon fill="#000000" stroke="#000000" points="690.7054,-237.4332 687.3467,-227.3849 683.7061,-237.3345 690.7054,-237.4332"/>
</g>
<!-- 140100482956648 -->
<g id="node8" class="node">
<title>140100482956648</title>
<polygon fill="#d3d3d3" stroke="#000000" points="765,-362 608,-362 608,-341 765,-341 765,-362"/>
<text text-anchor="middle" x="686.5" y="-348.4" font-family="Times,serif" font-size="12.00" fill="#000000">CudnnConvolutionBackward</text>
</g>
<!-- 140100482956648&#45;&gt;140100482956200 -->
<g id="edge7" class="edge">
<title>140100482956648&#45;&gt;140100482956200</title>
<path fill="none" stroke="#000000" d="M686.5,-340.9317C686.5,-332.0913 686.5,-319.2122 686.5,-308.3135"/>
<polygon fill="#000000" stroke="#000000" points="690.0001,-308.2979 686.5,-298.2979 683.0001,-308.2979 690.0001,-308.2979"/>
</g>
<!-- 140100482957152 -->
<g id="node9" class="node">
<title>140100482957152</title>
<polygon fill="#d3d3d3" stroke="#000000" points="628,-426 447,-426 447,-405 628,-405 628,-426"/>
<text text-anchor="middle" x="537.5" y="-412.4" font-family="Times,serif" font-size="12.00" fill="#000000">MaxPool2DWithIndicesBackward</text>
</g>
<!-- 140100482957152&#45;&gt;140100482956648 -->
<g id="edge8" class="edge">
<title>140100482957152&#45;&gt;140100482956648</title>
<path fill="none" stroke="#000000" d="M562.1043,-404.9317C586.7999,-394.3242 625.033,-377.9019 652.5949,-366.0633"/>
<polygon fill="#000000" stroke="#000000" points="654.0522,-369.2466 661.8591,-362.084 651.2895,-362.8148 654.0522,-369.2466"/>
</g>
<!-- 140100482957096 -->
<g id="node10" class="node">
<title>140100482957096</title>
<polygon fill="#d3d3d3" stroke="#000000" points="584.5,-490 490.5,-490 490.5,-469 584.5,-469 584.5,-490"/>
<text text-anchor="middle" x="537.5" y="-476.4" font-family="Times,serif" font-size="12.00" fill="#000000">ReluBackward0</text>
</g>
<!-- 140100482957096&#45;&gt;140100482957152 -->
<g id="edge9" class="edge">
<title>140100482957096&#45;&gt;140100482957152</title>
<path fill="none" stroke="#000000" d="M537.5,-468.9317C537.5,-460.0913 537.5,-447.2122 537.5,-436.3135"/>
<polygon fill="#000000" stroke="#000000" points="541.0001,-436.2979 537.5,-426.2979 534.0001,-436.2979 541.0001,-436.2979"/>
</g>
<!-- 140100482954800 -->
<g id="node11" class="node">
<title>140100482954800</title>
<polygon fill="#d3d3d3" stroke="#000000" points="616,-547 459,-547 459,-526 616,-526 616,-547"/>
<text text-anchor="middle" x="537.5" y="-533.4" font-family="Times,serif" font-size="12.00" fill="#000000">CudnnConvolutionBackward</text>
</g>
<!-- 140100482954800&#45;&gt;140100482957096 -->
<g id="edge10" class="edge">
<title>140100482954800&#45;&gt;140100482957096</title>
<path fill="none" stroke="#000000" d="M537.5,-525.7787C537.5,-518.6134 537.5,-508.9517 537.5,-500.3097"/>
<polygon fill="#000000" stroke="#000000" points="541.0001,-500.1732 537.5,-490.1732 534.0001,-500.1732 541.0001,-500.1732"/>
</g>
<!-- 140100482956592 -->
<g id="node12" class="node">
<title>140100482956592</title>
<polygon fill="#d3d3d3" stroke="#000000" points="479,-611 298,-611 298,-590 479,-590 479,-611"/>
<text text-anchor="middle" x="388.5" y="-597.4" font-family="Times,serif" font-size="12.00" fill="#000000">MaxPool2DWithIndicesBackward</text>
</g>
<!-- 140100482956592&#45;&gt;140100482954800 -->
<g id="edge11" class="edge">
<title>140100482956592&#45;&gt;140100482954800</title>
<path fill="none" stroke="#000000" d="M413.1043,-589.9317C437.7999,-579.3242 476.033,-562.9019 503.5949,-551.0633"/>
<polygon fill="#000000" stroke="#000000" points="505.0522,-554.2466 512.8591,-547.084 502.2895,-547.8148 505.0522,-554.2466"/>
</g>
<!-- 140100482956536 -->
<g id="node13" class="node">
<title>140100482956536</title>
<polygon fill="#d3d3d3" stroke="#000000" points="435.5,-675 341.5,-675 341.5,-654 435.5,-654 435.5,-675"/>
<text text-anchor="middle" x="388.5" y="-661.4" font-family="Times,serif" font-size="12.00" fill="#000000">ReluBackward0</text>
</g>
<!-- 140100482956536&#45;&gt;140100482956592 -->
<g id="edge12" class="edge">
<title>140100482956536&#45;&gt;140100482956592</title>
<path fill="none" stroke="#000000" d="M388.5,-653.9317C388.5,-645.0913 388.5,-632.2122 388.5,-621.3135"/>
<polygon fill="#000000" stroke="#000000" points="392.0001,-621.2979 388.5,-611.2979 385.0001,-621.2979 392.0001,-621.2979"/>
</g>
<!-- 140100482955976 -->
<g id="node14" class="node">
<title>140100482955976</title>
<polygon fill="#d3d3d3" stroke="#000000" points="467,-732 310,-732 310,-711 467,-711 467,-732"/>
<text text-anchor="middle" x="388.5" y="-718.4" font-family="Times,serif" font-size="12.00" fill="#000000">CudnnConvolutionBackward</text>
</g>
<!-- 140100482955976&#45;&gt;140100482956536 -->
<g id="edge13" class="edge">
<title>140100482955976&#45;&gt;140100482956536</title>
<path fill="none" stroke="#000000" d="M388.5,-710.7787C388.5,-703.6134 388.5,-693.9517 388.5,-685.3097"/>
<polygon fill="#000000" stroke="#000000" points="392.0001,-685.1732 388.5,-675.1732 385.0001,-685.1732 392.0001,-685.1732"/>
</g>
<!-- 140100482955584 -->
<g id="node15" class="node">
<title>140100482955584</title>
<polygon fill="#d3d3d3" stroke="#000000" points="330,-796 149,-796 149,-775 330,-775 330,-796"/>
<text text-anchor="middle" x="239.5" y="-782.4" font-family="Times,serif" font-size="12.00" fill="#000000">MaxPool2DWithIndicesBackward</text>
</g>
<!-- 140100482955584&#45;&gt;140100482955976 -->
<g id="edge14" class="edge">
<title>140100482955584&#45;&gt;140100482955976</title>
<path fill="none" stroke="#000000" d="M264.1043,-774.9317C288.7999,-764.3242 327.033,-747.9019 354.5949,-736.0633"/>
<polygon fill="#000000" stroke="#000000" points="356.0522,-739.2466 363.8591,-732.084 353.2895,-732.8148 356.0522,-739.2466"/>
</g>
<!-- 140100482956424 -->
<g id="node16" class="node">
<title>140100482956424</title>
<polygon fill="#d3d3d3" stroke="#000000" points="286.5,-860 192.5,-860 192.5,-839 286.5,-839 286.5,-860"/>
<text text-anchor="middle" x="239.5" y="-846.4" font-family="Times,serif" font-size="12.00" fill="#000000">ReluBackward0</text>
</g>
<!-- 140100482956424&#45;&gt;140100482955584 -->
<g id="edge15" class="edge">
<title>140100482956424&#45;&gt;140100482955584</title>
<path fill="none" stroke="#000000" d="M239.5,-838.9317C239.5,-830.0913 239.5,-817.2122 239.5,-806.3135"/>
<polygon fill="#000000" stroke="#000000" points="243.0001,-806.2979 239.5,-796.2979 236.0001,-806.2979 243.0001,-806.2979"/>
</g>
<!-- 140100482954688 -->
<g id="node17" class="node">
<title>140100482954688</title>
<polygon fill="#d3d3d3" stroke="#000000" points="318,-917 161,-917 161,-896 318,-896 318,-917"/>
<text text-anchor="middle" x="239.5" y="-903.4" font-family="Times,serif" font-size="12.00" fill="#000000">CudnnConvolutionBackward</text>
</g>
<!-- 140100482954688&#45;&gt;140100482956424 -->
<g id="edge16" class="edge">
<title>140100482954688&#45;&gt;140100482956424</title>
<path fill="none" stroke="#000000" d="M239.5,-895.7787C239.5,-888.6134 239.5,-878.9517 239.5,-870.3097"/>
<polygon fill="#000000" stroke="#000000" points="243.0001,-870.1732 239.5,-860.1732 236.0001,-870.1732 243.0001,-870.1732"/>
</g>
<!-- 140100482955696 -->
<g id="node18" class="node">
<title>140100482955696</title>
<polygon fill="#d3d3d3" stroke="#000000" points="181,-981 0,-981 0,-960 181,-960 181,-981"/>
<text text-anchor="middle" x="90.5" y="-967.4" font-family="Times,serif" font-size="12.00" fill="#000000">MaxPool2DWithIndicesBackward</text>
</g>
<!-- 140100482955696&#45;&gt;140100482954688 -->
<g id="edge17" class="edge">
<title>140100482955696&#45;&gt;140100482954688</title>
<path fill="none" stroke="#000000" d="M115.1043,-959.9317C139.7999,-949.3242 178.033,-932.9019 205.5949,-921.0633"/>
<polygon fill="#000000" stroke="#000000" points="207.0522,-924.2466 214.8591,-917.084 204.2895,-917.8148 207.0522,-924.2466"/>
</g>
<!-- 140100482955304 -->
<g id="node19" class="node">
<title>140100482955304</title>
<polygon fill="#d3d3d3" stroke="#000000" points="137.5,-1045 43.5,-1045 43.5,-1024 137.5,-1024 137.5,-1045"/>
<text text-anchor="middle" x="90.5" y="-1031.4" font-family="Times,serif" font-size="12.00" fill="#000000">ReluBackward0</text>
</g>
<!-- 140100482955304&#45;&gt;140100482955696 -->
<g id="edge18" class="edge">
<title>140100482955304&#45;&gt;140100482955696</title>
<path fill="none" stroke="#000000" d="M90.5,-1023.9317C90.5,-1015.0913 90.5,-1002.2122 90.5,-991.3135"/>
<polygon fill="#000000" stroke="#000000" points="94.0001,-991.2979 90.5,-981.2979 87.0001,-991.2979 94.0001,-991.2979"/>
</g>
<!-- 140100482956032 -->
<g id="node20" class="node">
<title>140100482956032</title>
<polygon fill="#d3d3d3" stroke="#000000" points="169,-1102 12,-1102 12,-1081 169,-1081 169,-1102"/>
<text text-anchor="middle" x="90.5" y="-1088.4" font-family="Times,serif" font-size="12.00" fill="#000000">CudnnConvolutionBackward</text>
</g>
<!-- 140100482956032&#45;&gt;140100482955304 -->
<g id="edge19" class="edge">
<title>140100482956032&#45;&gt;140100482955304</title>
<path fill="none" stroke="#000000" d="M90.5,-1080.7787C90.5,-1073.6134 90.5,-1063.9517 90.5,-1055.3097"/>
<polygon fill="#000000" stroke="#000000" points="94.0001,-1055.1732 90.5,-1045.1732 87.0001,-1055.1732 94.0001,-1055.1732"/>
</g>
<!-- 140098903474248 -->
<g id="node21" class="node">
<title>140098903474248</title>
<polygon fill="#add8e6" stroke="#000000" points="87,-1173 12,-1173 12,-1138 87,-1138 87,-1173"/>
<text text-anchor="middle" x="49.5" y="-1145.4" font-family="Times,serif" font-size="12.00" fill="#000000"> (32, 4, 3, 3)</text>
</g>
<!-- 140098903474248&#45;&gt;140100482956032 -->
<g id="edge20" class="edge">
<title>140098903474248&#45;&gt;140100482956032</title>
<path fill="none" stroke="#000000" d="M60.9208,-1137.6724C66.2802,-1129.3066 72.6771,-1119.3212 78.1488,-1110.7799"/>
<polygon fill="#000000" stroke="#000000" points="81.1831,-1112.5318 83.6303,-1102.2234 75.2889,-1108.7558 81.1831,-1112.5318"/>
</g>
<!-- 140098903474304 -->
<g id="node22" class="node">
<title>140098903474304</title>
<polygon fill="#add8e6" stroke="#000000" points="159.5,-1173 105.5,-1173 105.5,-1138 159.5,-1138 159.5,-1173"/>
<text text-anchor="middle" x="132.5" y="-1145.4" font-family="Times,serif" font-size="12.00" fill="#000000"> (32)</text>
</g>
<!-- 140098903474304&#45;&gt;140100482956032 -->
<g id="edge21" class="edge">
<title>140098903474304&#45;&gt;140100482956032</title>
<path fill="none" stroke="#000000" d="M120.8007,-1137.6724C115.3105,-1129.3066 108.7576,-1119.3212 103.1524,-1110.7799"/>
<polygon fill="#000000" stroke="#000000" points="105.95,-1108.6636 97.5373,-1102.2234 100.0977,-1112.5042 105.95,-1108.6636"/>
</g>
<!-- 140100482954912 -->
<g id="node23" class="node">
<title>140100482954912</title>
<polygon fill="#add8e6" stroke="#000000" points="280,-988 199,-988 199,-953 280,-953 280,-988"/>
<text text-anchor="middle" x="239.5" y="-960.4" font-family="Times,serif" font-size="12.00" fill="#000000"> (32, 32, 3, 3)</text>
</g>
<!-- 140100482954912&#45;&gt;140100482954688 -->
<g id="edge22" class="edge">
<title>140100482954912&#45;&gt;140100482954688</title>
<path fill="none" stroke="#000000" d="M239.5,-952.6724C239.5,-944.8405 239.5,-935.5893 239.5,-927.4323"/>
<polygon fill="#000000" stroke="#000000" points="243.0001,-927.2234 239.5,-917.2234 236.0001,-927.2235 243.0001,-927.2234"/>
</g>
<!-- 140100482955920 -->
<g id="node24" class="node">
<title>140100482955920</title>
<polygon fill="#add8e6" stroke="#000000" points="352.5,-988 298.5,-988 298.5,-953 352.5,-953 352.5,-988"/>
<text text-anchor="middle" x="325.5" y="-960.4" font-family="Times,serif" font-size="12.00" fill="#000000"> (32)</text>
</g>
<!-- 140100482955920&#45;&gt;140100482954688 -->
<g id="edge23" class="edge">
<title>140100482955920&#45;&gt;140100482954688</title>
<path fill="none" stroke="#000000" d="M301.5442,-952.6724C289.1462,-943.446 274.1013,-932.2498 261.9317,-923.1934"/>
<polygon fill="#000000" stroke="#000000" points="263.7694,-920.1981 253.6575,-917.0358 259.5903,-925.8138 263.7694,-920.1981"/>
</g>
<!-- 140100482955528 -->
<g id="node25" class="node">
<title>140100482955528</title>
<polygon fill="#add8e6" stroke="#000000" points="429,-803 348,-803 348,-768 429,-768 429,-803"/>
<text text-anchor="middle" x="388.5" y="-775.4" font-family="Times,serif" font-size="12.00" fill="#000000"> (64, 32, 3, 3)</text>
</g>
<!-- 140100482955528&#45;&gt;140100482955976 -->
<g id="edge24" class="edge">
<title>140100482955528&#45;&gt;140100482955976</title>
<path fill="none" stroke="#000000" d="M388.5,-767.6724C388.5,-759.8405 388.5,-750.5893 388.5,-742.4323"/>
<polygon fill="#000000" stroke="#000000" points="392.0001,-742.2234 388.5,-732.2234 385.0001,-742.2235 392.0001,-742.2234"/>
</g>
<!-- 140100482955472 -->
<g id="node26" class="node">
<title>140100482955472</title>
<polygon fill="#add8e6" stroke="#000000" points="501.5,-803 447.5,-803 447.5,-768 501.5,-768 501.5,-803"/>
<text text-anchor="middle" x="474.5" y="-775.4" font-family="Times,serif" font-size="12.00" fill="#000000"> (64)</text>
</g>
<!-- 140100482955472&#45;&gt;140100482955976 -->
<g id="edge25" class="edge">
<title>140100482955472&#45;&gt;140100482955976</title>
<path fill="none" stroke="#000000" d="M450.5442,-767.6724C438.1462,-758.446 423.1013,-747.2498 410.9317,-738.1934"/>
<polygon fill="#000000" stroke="#000000" points="412.7694,-735.1981 402.6575,-732.0358 408.5903,-740.8138 412.7694,-735.1981"/>
</g>
<!-- 140100482956312 -->
<g id="node27" class="node">
<title>140100482956312</title>
<polygon fill="#add8e6" stroke="#000000" points="578,-618 497,-618 497,-583 578,-583 578,-618"/>
<text text-anchor="middle" x="537.5" y="-590.4" font-family="Times,serif" font-size="12.00" fill="#000000"> (64, 64, 3, 3)</text>
</g>
<!-- 140100482956312&#45;&gt;140100482954800 -->
<g id="edge26" class="edge">
<title>140100482956312&#45;&gt;140100482954800</title>
<path fill="none" stroke="#000000" d="M537.5,-582.6724C537.5,-574.8405 537.5,-565.5893 537.5,-557.4323"/>
<polygon fill="#000000" stroke="#000000" points="541.0001,-557.2234 537.5,-547.2234 534.0001,-557.2235 541.0001,-557.2234"/>
</g>
<!-- 140100482956088 -->
<g id="node28" class="node">
<title>140100482956088</title>
<polygon fill="#add8e6" stroke="#000000" points="650.5,-618 596.5,-618 596.5,-583 650.5,-583 650.5,-618"/>
<text text-anchor="middle" x="623.5" y="-590.4" font-family="Times,serif" font-size="12.00" fill="#000000"> (64)</text>
</g>
<!-- 140100482956088&#45;&gt;140100482954800 -->
<g id="edge27" class="edge">
<title>140100482956088&#45;&gt;140100482954800</title>
<path fill="none" stroke="#000000" d="M599.5442,-582.6724C587.1462,-573.446 572.1013,-562.2498 559.9317,-553.1934"/>
<polygon fill="#000000" stroke="#000000" points="561.7694,-550.1981 551.6575,-547.0358 557.5903,-555.8138 561.7694,-550.1981"/>
</g>
<!-- 140100482955248 -->
<g id="node29" class="node">
<title>140100482955248</title>
<polygon fill="#add8e6" stroke="#000000" points="727,-433 646,-433 646,-398 727,-398 727,-433"/>
<text text-anchor="middle" x="686.5" y="-405.4" font-family="Times,serif" font-size="12.00" fill="#000000"> (64, 64, 3, 3)</text>
</g>
<!-- 140100482955248&#45;&gt;140100482956648 -->
<g id="edge28" class="edge">
<title>140100482955248&#45;&gt;140100482956648</title>
<path fill="none" stroke="#000000" d="M686.5,-397.6724C686.5,-389.8405 686.5,-380.5893 686.5,-372.4323"/>
<polygon fill="#000000" stroke="#000000" points="690.0001,-372.2234 686.5,-362.2234 683.0001,-372.2235 690.0001,-372.2234"/>
</g>
<!-- 140100482955192 -->
<g id="node30" class="node">
<title>140100482955192</title>
<polygon fill="#add8e6" stroke="#000000" points="799.5,-433 745.5,-433 745.5,-398 799.5,-398 799.5,-433"/>
<text text-anchor="middle" x="772.5" y="-405.4" font-family="Times,serif" font-size="12.00" fill="#000000"> (64)</text>
</g>
<!-- 140100482955192&#45;&gt;140100482956648 -->
<g id="edge29" class="edge">
<title>140100482955192&#45;&gt;140100482956648</title>
<path fill="none" stroke="#000000" d="M748.5442,-397.6724C736.1462,-388.446 721.1013,-377.2498 708.9317,-368.1934"/>
<polygon fill="#000000" stroke="#000000" points="710.7694,-365.1981 700.6575,-362.0358 706.5903,-370.8138 710.7694,-365.1981"/>
</g>
<!-- 140100482954968 -->
<g id="node31" class="node">
<title>140100482954968</title>
<polygon fill="#d3d3d3" stroke="#000000" points="826,-227 753,-227 753,-206 826,-206 826,-227"/>
<text text-anchor="middle" x="789.5" y="-213.4" font-family="Times,serif" font-size="12.00" fill="#000000">TBackward</text>
</g>
<!-- 140100482954968&#45;&gt;140099035267816 -->
<g id="edge30" class="edge">
<title>140100482954968&#45;&gt;140099035267816</title>
<path fill="none" stroke="#000000" d="M774.0084,-205.7166C757.2865,-194.0769 730.4541,-175.3994 711.104,-161.9303"/>
<polygon fill="#000000" stroke="#000000" points="713.0102,-158.9927 702.8032,-156.1522 709.011,-164.7379 713.0102,-158.9927"/>
</g>
<!-- 140100482956928 -->
<g id="node32" class="node">
<title>140100482956928</title>
<polygon fill="#add8e6" stroke="#000000" points="827,-305 752,-305 752,-270 827,-270 827,-305"/>
<text text-anchor="middle" x="789.5" y="-277.4" font-family="Times,serif" font-size="12.00" fill="#000000"> (512, 1024)</text>
</g>
<!-- 140100482956928&#45;&gt;140100482954968 -->
<g id="edge31" class="edge">
<title>140100482956928&#45;&gt;140100482954968</title>
<path fill="none" stroke="#000000" d="M789.5,-269.9494C789.5,-260.058 789.5,-247.6435 789.5,-237.2693"/>
<polygon fill="#000000" stroke="#000000" points="793.0001,-237.0288 789.5,-227.0288 786.0001,-237.0289 793.0001,-237.0288"/>
</g>
<!-- 140099035267368 -->
<g id="node33" class="node">
<title>140099035267368</title>
<polygon fill="#d3d3d3" stroke="#000000" points="826,-85 753,-85 753,-64 826,-64 826,-85"/>
<text text-anchor="middle" x="789.5" y="-71.4" font-family="Times,serif" font-size="12.00" fill="#000000">TBackward</text>
</g>
<!-- 140099035267368&#45;&gt;140100994149904 -->
<g id="edge32" class="edge">
<title>140099035267368&#45;&gt;140100994149904</title>
<path fill="none" stroke="#000000" d="M772.6568,-63.9317C756.4155,-53.7411 731.621,-38.1838 712.9676,-26.4797"/>
<polygon fill="#000000" stroke="#000000" points="714.6991,-23.4342 704.3682,-21.084 710.9787,-29.3637 714.6991,-23.4342"/>
</g>
<!-- 140099035267648 -->
<g id="node34" class="node">
<title>140099035267648</title>
<polygon fill="#add8e6" stroke="#000000" points="818,-163 761,-163 761,-128 818,-128 818,-163"/>
<text text-anchor="middle" x="789.5" y="-135.4" font-family="Times,serif" font-size="12.00" fill="#000000"> (4, 512)</text>
</g>
<!-- 140099035267648&#45;&gt;140099035267368 -->
<g id="edge33" class="edge">
<title>140099035267648&#45;&gt;140099035267368</title>
<path fill="none" stroke="#000000" d="M789.5,-127.9494C789.5,-118.058 789.5,-105.6435 789.5,-95.2693"/>
<polygon fill="#000000" stroke="#000000" points="793.0001,-95.0288 789.5,-85.0288 786.0001,-95.0289 793.0001,-95.0288"/>
</g>
</g>
</svg>
